G04 Layer: TopSolderMaskLayer*
G04 EasyEDA v6.5.50, 2025-05-27 18:24:41*
G04 111ed26f3c4c43cfb17bfce727aa7961,b37a74ae5ac9402f918d5afa9d52dbed,10*
G04 Gerber Generator version 0.2*
G04 Scale: 100 percent, Rotated: No, Reflected: No *
G04 Dimensions in millimeters *
G04 leading zeros omitted , absolute positions ,4 integer and 5 decimal *
%FSLAX45Y45*%
%MOMM*%

%AMMACRO1*4,1,8,-0.6248,-0.9013,-0.6546,-0.8713,-0.6546,0.8716,-0.6248,0.9013,0.6246,0.9013,0.6546,0.8716,0.6546,-0.8713,0.6246,-0.9013,-0.6248,-0.9013,0*%
%ADD10C,2.3016*%
%ADD11MACRO1*%
%ADD12C,2.8956*%
%ADD13C,2.8016*%
%ADD14C,1.6256*%
%ADD15C,0.0104*%

%LPD*%
D10*
X2895600Y3302000D02*
G01*
X3035300Y3302000D01*
X3238500Y3098800D01*
X3238500Y2451100D01*
X3390900Y2298700D01*
X3564000Y2298700D01*
X3568700Y2294001D01*
D11*
G01*
X2344978Y5778487D03*
G01*
X2049221Y5778487D03*
G01*
X1163878Y5778487D03*
G01*
X868121Y5778487D03*
D12*
G01*
X6755206Y5419852D03*
G01*
X5335193Y6019800D03*
G01*
X5535193Y6619798D03*
G01*
X5535193Y5419801D03*
G01*
X6755206Y6619747D03*
G01*
X4202506Y5419852D03*
G01*
X2782493Y6019800D03*
G01*
X2982493Y6619798D03*
G01*
X2982493Y5419801D03*
G01*
X4202506Y6619747D03*
D13*
G01*
X698500Y4800600D03*
G01*
X1460500Y4800600D03*
G01*
X698500Y3302000D03*
G01*
X698500Y2797987D03*
G01*
X698500Y2294001D03*
G01*
X1460500Y2294001D03*
G01*
X1460500Y2797987D03*
G01*
X1460500Y3302000D03*
G01*
X6184900Y774700D03*
G01*
X6184900Y1270000D03*
G01*
X5689600Y774700D03*
G01*
X5689600Y1270000D03*
G01*
X5194300Y774700D03*
G01*
X5194300Y1270000D03*
G01*
X4699000Y774700D03*
G01*
X4699000Y1270000D03*
G01*
X4203700Y774700D03*
G01*
X4203700Y1270000D03*
G01*
X3708400Y1270000D03*
G01*
X3708400Y774700D03*
G01*
X3213100Y774700D03*
G01*
X3213100Y1270000D03*
G01*
X2895600Y3302000D03*
G01*
X2895600Y2797987D03*
G01*
X2895600Y2294001D03*
G01*
X2133600Y2294001D03*
G01*
X2133600Y2797987D03*
G01*
X2133600Y3302000D03*
G01*
X2895600Y4800600D03*
G01*
X2133600Y4800600D03*
G01*
X5003800Y4800600D03*
G01*
X5765800Y4800600D03*
G01*
X5003800Y3302000D03*
G01*
X5003800Y2797987D03*
G01*
X5003800Y2294001D03*
G01*
X5765800Y2294001D03*
G01*
X5765800Y2797987D03*
G01*
X5765800Y3302000D03*
G01*
X4330700Y3302000D03*
G01*
X4330700Y2797987D03*
G01*
X4330700Y2294001D03*
G01*
X3568700Y2294001D03*
G01*
X3568700Y2797987D03*
G01*
X3568700Y3302000D03*
G01*
X4330700Y4800600D03*
G01*
X3568700Y4800600D03*
G01*
X7188200Y3302000D03*
G01*
X7188200Y2797987D03*
G01*
X7188200Y2294001D03*
G01*
X6426200Y2294001D03*
G01*
X6426200Y2797987D03*
G01*
X6426200Y3302000D03*
G01*
X7188200Y4800600D03*
G01*
X6426200Y4800600D03*
G01*
X774700Y1169238D03*
G01*
X266700Y1169365D03*
G01*
X1943100Y1169238D03*
G01*
X2451100Y1168400D03*
D14*
G01*
X1600200Y1790700D03*
G01*
X2006600Y1790700D03*
D13*
G01*
X1625600Y6261100D03*
G01*
X1866900Y6007100D03*
G01*
X2095500Y6261100D03*
G01*
X901700Y6261100D03*
G01*
X673100Y6007100D03*
G01*
X431800Y6261100D03*
D14*
G01*
X6819900Y1790700D03*
G01*
X7226300Y1790700D03*
G01*
X2552700Y1790700D03*
G01*
X495300Y5321300D03*
G01*
X863600Y5321300D03*
G01*
X1257300Y5321300D03*
G01*
X1651000Y5321300D03*
G01*
X3175000Y7353300D03*
G01*
X5740400Y7366000D03*
G01*
X3429000Y7353300D03*
G01*
X5969000Y7366000D03*
M02*
