G04 Layer: TopSilkscreenLayer*
G04 EasyEDA v6.5.50, 2025-05-27 18:24:41*
G04 111ed26f3c4c43cfb17bfce727aa7961,b37a74ae5ac9402f918d5afa9d52dbed,10*
G04 Gerber Generator version 0.2*
G04 Scale: 100 percent, Rotated: No, Reflected: No *
G04 Dimensions in millimeters *
G04 leading zeros omitted , absolute positions ,4 integer and 5 decimal *
%FSLAX45Y45*%
%MOMM*%

%ADD10C,0.2032*%
%ADD11C,0.1524*%
%ADD12C,0.2000*%
%ADD13C,0.2540*%
%ADD14C,0.3000*%
%ADD15C,0.0132*%

%LPD*%
D10*
X5651500Y275841D02*
G01*
X5651500Y122933D01*
X5651500Y122933D02*
G01*
X5738875Y122933D01*
X5786881Y72133D02*
G01*
X5917691Y72133D01*
X6002020Y224787D02*
G01*
X5987541Y217675D01*
X5973063Y202943D01*
X5965697Y181099D01*
X5965697Y166621D01*
X5973063Y144777D01*
X5987541Y130299D01*
X6002020Y122933D01*
X6023863Y122933D01*
X6038341Y130299D01*
X6053074Y144777D01*
X6060186Y166621D01*
X6060186Y181099D01*
X6053074Y202943D01*
X6038341Y217675D01*
X6023863Y224787D01*
X6002020Y224787D01*
X6108191Y224787D02*
G01*
X6108191Y152143D01*
X6115558Y130299D01*
X6130036Y122933D01*
X6151879Y122933D01*
X6166358Y130299D01*
X6188202Y152143D01*
X6188202Y224787D02*
G01*
X6188202Y122933D01*
X6258052Y275841D02*
G01*
X6258052Y152143D01*
X6265418Y130299D01*
X6279895Y122933D01*
X6294374Y122933D01*
X6236208Y224787D02*
G01*
X6287261Y224787D01*
X6342379Y72133D02*
G01*
X6473190Y72133D01*
X6521195Y275841D02*
G01*
X6521195Y122933D01*
X6521195Y275841D02*
G01*
X6623050Y122933D01*
X6623050Y275841D02*
G01*
X6623050Y122933D01*
X2971800Y263141D02*
G01*
X2971800Y110233D01*
X2971800Y263141D02*
G01*
X3073654Y110233D01*
X3073654Y263141D02*
G01*
X3073654Y110233D01*
X3121659Y59433D02*
G01*
X3252470Y59433D01*
X3300475Y263141D02*
G01*
X3307841Y255775D01*
X3314954Y263141D01*
X3307841Y270253D01*
X3300475Y263141D01*
X3307841Y212087D02*
G01*
X3307841Y110233D01*
X3362959Y212087D02*
G01*
X3362959Y110233D01*
X3362959Y183131D02*
G01*
X3384804Y204975D01*
X3399536Y212087D01*
X3421379Y212087D01*
X3435858Y204975D01*
X3442970Y183131D01*
X3442970Y110233D01*
X3490975Y59433D02*
G01*
X3622040Y59433D01*
X3670045Y263141D02*
G01*
X3670045Y110233D01*
X3670045Y110233D02*
G01*
X3757168Y110233D01*
X5092700Y293875D02*
G01*
X5092700Y100073D01*
X5092700Y293875D02*
G01*
X5175758Y293875D01*
X5203443Y284731D01*
X5212841Y275587D01*
X5221986Y257045D01*
X5221986Y229359D01*
X5212841Y210817D01*
X5203443Y201673D01*
X5175758Y192275D01*
X5092700Y192275D01*
X5282945Y293875D02*
G01*
X5282945Y100073D01*
X5282945Y293875D02*
G01*
X5403088Y293875D01*
X5282945Y201673D02*
G01*
X5356859Y201673D01*
X5282945Y100073D02*
G01*
X5403088Y100073D01*
X4610100Y293875D02*
G01*
X4610100Y100073D01*
X4610100Y293875D02*
G01*
X4693158Y293875D01*
X4720843Y284731D01*
X4730241Y275587D01*
X4739386Y257045D01*
X4739386Y229359D01*
X4730241Y210817D01*
X4720843Y201673D01*
X4693158Y192275D01*
X4610100Y192275D01*
X4800345Y293875D02*
G01*
X4800345Y100073D01*
X4800345Y293875D02*
G01*
X4920488Y293875D01*
X4800345Y201673D02*
G01*
X4874259Y201673D01*
X4800345Y100073D02*
G01*
X4920488Y100073D01*
X4114800Y293875D02*
G01*
X4114800Y100073D01*
X4114800Y293875D02*
G01*
X4197858Y293875D01*
X4225543Y284731D01*
X4234941Y275587D01*
X4244086Y257045D01*
X4244086Y229359D01*
X4234941Y210817D01*
X4225543Y201673D01*
X4197858Y192275D01*
X4114800Y192275D01*
X4305045Y293875D02*
G01*
X4305045Y100073D01*
X4305045Y293875D02*
G01*
X4425188Y293875D01*
X4305045Y201673D02*
G01*
X4378959Y201673D01*
X4305045Y100073D02*
G01*
X4425188Y100073D01*
X1155700Y725675D02*
G01*
X1155700Y531873D01*
X1155700Y725675D02*
G01*
X1275842Y725675D01*
X1155700Y633473D02*
G01*
X1229613Y633473D01*
X1336802Y688845D02*
G01*
X1355089Y697989D01*
X1383029Y725675D01*
X1383029Y531873D01*
X1003300Y1970275D02*
G01*
X1003300Y1776473D01*
X1132586Y1970275D02*
G01*
X1003300Y1840989D01*
X1049528Y1887217D02*
G01*
X1132586Y1776473D01*
X1248918Y1970275D02*
G01*
X1221231Y1961131D01*
X1202689Y1933445D01*
X1193545Y1887217D01*
X1193545Y1859531D01*
X1202689Y1813303D01*
X1221231Y1785617D01*
X1248918Y1776473D01*
X1267460Y1776473D01*
X1295145Y1785617D01*
X1313687Y1813303D01*
X1322831Y1859531D01*
X1322831Y1887217D01*
X1313687Y1933445D01*
X1295145Y1961131D01*
X1267460Y1970275D01*
X1248918Y1970275D01*
X2197100Y1970278D02*
G01*
X2197100Y1776476D01*
X2326386Y1970278D02*
G01*
X2197100Y1840992D01*
X2243327Y1887220D02*
G01*
X2326386Y1776476D01*
X2387345Y1933447D02*
G01*
X2405888Y1942592D01*
X2433574Y1970278D01*
X2433574Y1776476D01*
X3848100Y1970278D02*
G01*
X3848100Y1776476D01*
X3977386Y1970278D02*
G01*
X3848100Y1840992D01*
X3894327Y1887220D02*
G01*
X3977386Y1776476D01*
X4047490Y1924050D02*
G01*
X4047490Y1933447D01*
X4056888Y1951989D01*
X4066031Y1961134D01*
X4084574Y1970278D01*
X4121404Y1970278D01*
X4139945Y1961134D01*
X4149090Y1951989D01*
X4158488Y1933447D01*
X4158488Y1914905D01*
X4149090Y1896363D01*
X4130802Y1868678D01*
X4038345Y1776476D01*
X4167631Y1776476D01*
X5295900Y1970275D02*
G01*
X5295900Y1776473D01*
X5425186Y1970275D02*
G01*
X5295900Y1840989D01*
X5342127Y1887217D02*
G01*
X5425186Y1776473D01*
X5504688Y1970275D02*
G01*
X5606288Y1970275D01*
X5550915Y1896361D01*
X5578602Y1896361D01*
X5596890Y1887217D01*
X5606288Y1878073D01*
X5615431Y1850387D01*
X5615431Y1831845D01*
X5606288Y1804159D01*
X5587745Y1785617D01*
X5560059Y1776473D01*
X5532374Y1776473D01*
X5504688Y1785617D01*
X5495290Y1794761D01*
X5486145Y1813303D01*
X6692900Y1970275D02*
G01*
X6692900Y1776473D01*
X6822186Y1970275D02*
G01*
X6692900Y1840989D01*
X6739127Y1887217D02*
G01*
X6822186Y1776473D01*
X6975602Y1970275D02*
G01*
X6883145Y1840989D01*
X7021829Y1840989D01*
X6975602Y1970275D02*
G01*
X6975602Y1776473D01*
D11*
X1614678Y6007605D02*
G01*
X1609344Y6018019D01*
X1598929Y6028433D01*
X1588770Y6033513D01*
X1567942Y6033513D01*
X1557528Y6028433D01*
X1547113Y6018019D01*
X1541779Y6007605D01*
X1536700Y5991857D01*
X1536700Y5965949D01*
X1541779Y5950455D01*
X1547113Y5940041D01*
X1557528Y5929627D01*
X1567942Y5924547D01*
X1588770Y5924547D01*
X1598929Y5929627D01*
X1609344Y5940041D01*
X1614678Y5950455D01*
X1614678Y5965949D01*
X1588770Y5965949D02*
G01*
X1614678Y5965949D01*
X420878Y6007605D02*
G01*
X415544Y6018019D01*
X405129Y6028433D01*
X394970Y6033513D01*
X374142Y6033513D01*
X363728Y6028433D01*
X353313Y6018019D01*
X347979Y6007605D01*
X342900Y5991857D01*
X342900Y5965949D01*
X347979Y5950455D01*
X353313Y5940041D01*
X363728Y5929627D01*
X374142Y5924547D01*
X394970Y5924547D01*
X405129Y5929627D01*
X415544Y5940041D01*
X420878Y5950455D01*
X420878Y5965949D01*
X394970Y5965949D02*
G01*
X420878Y5965949D01*
X1446021Y7786113D02*
G01*
X1446021Y7677147D01*
X1409700Y7786113D02*
G01*
X1482344Y7786113D01*
X1516634Y7765285D02*
G01*
X1527047Y7770619D01*
X1542795Y7786113D01*
X1542795Y7677147D01*
X1577086Y7765285D02*
G01*
X1587500Y7770619D01*
X1602994Y7786113D01*
X1602994Y7677147D01*
X938021Y7786113D02*
G01*
X938021Y7677147D01*
X901700Y7786113D02*
G01*
X974344Y7786113D01*
X1008634Y7765285D02*
G01*
X1019047Y7770619D01*
X1034795Y7786113D01*
X1034795Y7677147D01*
X1074165Y7760205D02*
G01*
X1074165Y7765285D01*
X1079500Y7775699D01*
X1084579Y7781033D01*
X1094994Y7786113D01*
X1115821Y7786113D01*
X1126236Y7781033D01*
X1131315Y7775699D01*
X1136650Y7765285D01*
X1136650Y7754871D01*
X1131315Y7744457D01*
X1120902Y7728963D01*
X1069086Y7677147D01*
X1141729Y7677147D01*
D10*
X7112000Y1323847D02*
G01*
X7130541Y1332992D01*
X7158227Y1360678D01*
X7158227Y1166876D01*
X7219188Y1360678D02*
G01*
X7293102Y1166876D01*
X7367015Y1360678D02*
G01*
X7293102Y1166876D01*
X7437120Y1314450D02*
G01*
X7437120Y1323847D01*
X7446263Y1342389D01*
X7455661Y1351534D01*
X7473950Y1360678D01*
X7511034Y1360678D01*
X7529575Y1351534D01*
X7538720Y1342389D01*
X7547863Y1323847D01*
X7547863Y1305305D01*
X7538720Y1286763D01*
X7520177Y1259078D01*
X7427975Y1166876D01*
X7557261Y1166876D01*
X7627365Y1212850D02*
G01*
X7618222Y1203705D01*
X7627365Y1194562D01*
X7636509Y1203705D01*
X7627365Y1212850D01*
X7697470Y1323847D02*
G01*
X7716011Y1332992D01*
X7743697Y1360678D01*
X7743697Y1166876D01*
X7475727Y889762D02*
G01*
X7457186Y880363D01*
X7438643Y862076D01*
X7429500Y834389D01*
X7429500Y815847D01*
X7438643Y788162D01*
X7457186Y769620D01*
X7475727Y760476D01*
X7503413Y760476D01*
X7521956Y769620D01*
X7540243Y788162D01*
X7549641Y815847D01*
X7549641Y834389D01*
X7540243Y862076D01*
X7521956Y880363D01*
X7503413Y889762D01*
X7475727Y889762D01*
X7610602Y954278D02*
G01*
X7610602Y760476D01*
X7702804Y889762D02*
G01*
X7610602Y797305D01*
X7647431Y834389D02*
G01*
X7712202Y760476D01*
D11*
X3213100Y7595615D02*
G01*
X3213100Y7486650D01*
X3213100Y7595615D02*
G01*
X3249422Y7595615D01*
X3265170Y7590536D01*
X3275329Y7580121D01*
X3280663Y7569708D01*
X3285743Y7553960D01*
X3285743Y7528052D01*
X3280663Y7512558D01*
X3275329Y7502144D01*
X3265170Y7491729D01*
X3249422Y7486650D01*
X3213100Y7486650D01*
X3320034Y7574787D02*
G01*
X3330447Y7580121D01*
X3346195Y7595615D01*
X3346195Y7486650D01*
X3380486Y7574787D02*
G01*
X3390900Y7580121D01*
X3406393Y7595615D01*
X3406393Y7486650D01*
X5778500Y7608315D02*
G01*
X5778500Y7499350D01*
X5778500Y7608315D02*
G01*
X5814822Y7608315D01*
X5830570Y7603236D01*
X5840729Y7592821D01*
X5846063Y7582408D01*
X5851143Y7566660D01*
X5851143Y7540752D01*
X5846063Y7525258D01*
X5840729Y7514844D01*
X5830570Y7504429D01*
X5814822Y7499350D01*
X5778500Y7499350D01*
X5885434Y7587487D02*
G01*
X5895847Y7592821D01*
X5911595Y7608315D01*
X5911595Y7499350D01*
X5950965Y7582408D02*
G01*
X5950965Y7587487D01*
X5956300Y7597902D01*
X5961379Y7603236D01*
X5971793Y7608315D01*
X5992622Y7608315D01*
X6003036Y7603236D01*
X6008115Y7597902D01*
X6013450Y7587487D01*
X6013450Y7577073D01*
X6008115Y7566660D01*
X5997702Y7551165D01*
X5945886Y7499350D01*
X6018529Y7499350D01*
X25400Y2838704D02*
G01*
X34544Y2843276D01*
X48005Y2856737D01*
X48005Y2761234D01*
X78231Y2838704D02*
G01*
X87121Y2843276D01*
X100837Y2856737D01*
X100837Y2761234D01*
X212597Y2875026D02*
G01*
X130810Y2729484D01*
X247142Y2834131D02*
G01*
X247142Y2838704D01*
X251713Y2847594D01*
X256286Y2852165D01*
X265429Y2856737D01*
X283463Y2856737D01*
X292607Y2852165D01*
X297179Y2847594D01*
X301752Y2838704D01*
X301752Y2829560D01*
X297179Y2820415D01*
X288036Y2806700D01*
X242570Y2761234D01*
X306323Y2761234D01*
X336295Y2838704D02*
G01*
X345439Y2843276D01*
X359155Y2856737D01*
X359155Y2761234D01*
X25400Y3346704D02*
G01*
X34544Y3351276D01*
X48005Y3364737D01*
X48005Y3269234D01*
X82550Y3342131D02*
G01*
X82550Y3346704D01*
X87121Y3355594D01*
X91694Y3360165D01*
X100837Y3364737D01*
X119126Y3364737D01*
X128015Y3360165D01*
X132587Y3355594D01*
X137160Y3346704D01*
X137160Y3337560D01*
X132587Y3328415D01*
X123697Y3314700D01*
X78231Y3269234D01*
X141731Y3269234D01*
X253492Y3383026D02*
G01*
X171704Y3237484D01*
X288036Y3342131D02*
G01*
X288036Y3346704D01*
X292607Y3355594D01*
X297179Y3360165D01*
X306323Y3364737D01*
X324612Y3364737D01*
X333502Y3360165D01*
X338073Y3355594D01*
X342645Y3346704D01*
X342645Y3337560D01*
X338073Y3328415D01*
X328929Y3314700D01*
X283463Y3269234D01*
X347218Y3269234D01*
X381762Y3342131D02*
G01*
X381762Y3346704D01*
X386334Y3355594D01*
X390905Y3360165D01*
X400050Y3364737D01*
X418084Y3364737D01*
X427228Y3360165D01*
X431800Y3355594D01*
X436371Y3346704D01*
X436371Y3337560D01*
X431800Y3328415D01*
X422655Y3314700D01*
X377189Y3269234D01*
X440944Y3269234D01*
X25400Y2305304D02*
G01*
X34544Y2309876D01*
X48005Y2323337D01*
X48005Y2227834D01*
X123697Y2323337D02*
G01*
X78231Y2259837D01*
X146304Y2259837D01*
X123697Y2323337D02*
G01*
X123697Y2227834D01*
X258063Y2341626D02*
G01*
X176276Y2196084D01*
X292607Y2300731D02*
G01*
X292607Y2305304D01*
X297179Y2314194D01*
X301752Y2318765D01*
X310895Y2323337D01*
X328929Y2323337D01*
X338073Y2318765D01*
X342645Y2314194D01*
X347218Y2305304D01*
X347218Y2296160D01*
X342645Y2287015D01*
X333502Y2273300D01*
X288036Y2227834D01*
X351789Y2227834D01*
X427228Y2323337D02*
G01*
X381762Y2259837D01*
X449834Y2259837D01*
X427228Y2323337D02*
G01*
X427228Y2227834D01*
D10*
X416305Y5174487D02*
G01*
X407415Y5169915D01*
X398271Y5160771D01*
X393700Y5147310D01*
X393700Y5138165D01*
X398271Y5124450D01*
X407415Y5115305D01*
X416305Y5110734D01*
X430021Y5110734D01*
X439165Y5115305D01*
X448310Y5124450D01*
X452881Y5138165D01*
X452881Y5147310D01*
X448310Y5160771D01*
X439165Y5169915D01*
X430021Y5174487D01*
X416305Y5174487D01*
X482854Y5174487D02*
G01*
X482854Y5110734D01*
X482854Y5156200D02*
G01*
X496315Y5169915D01*
X505460Y5174487D01*
X519176Y5174487D01*
X528320Y5169915D01*
X532892Y5156200D01*
X532892Y5110734D01*
X762000Y5174487D02*
G01*
X762000Y5110734D01*
X762000Y5147310D02*
G01*
X766571Y5160771D01*
X775715Y5169915D01*
X784605Y5174487D01*
X798321Y5174487D01*
X828294Y5147310D02*
G01*
X882904Y5147310D01*
X882904Y5156200D01*
X878331Y5165344D01*
X873760Y5169915D01*
X864615Y5174487D01*
X851154Y5174487D01*
X842010Y5169915D01*
X832865Y5160771D01*
X828294Y5147310D01*
X828294Y5138165D01*
X832865Y5124450D01*
X842010Y5115305D01*
X851154Y5110734D01*
X864615Y5110734D01*
X873760Y5115305D01*
X882904Y5124450D01*
X912876Y5174487D02*
G01*
X940307Y5110734D01*
X967486Y5174487D02*
G01*
X940307Y5110734D01*
X1211071Y5183631D02*
G01*
X1206754Y5192776D01*
X1197610Y5201665D01*
X1188465Y5206237D01*
X1170178Y5206237D01*
X1161287Y5201665D01*
X1152144Y5192776D01*
X1147571Y5183631D01*
X1143000Y5169915D01*
X1143000Y5147310D01*
X1147571Y5133594D01*
X1152144Y5124450D01*
X1161287Y5115305D01*
X1170178Y5110734D01*
X1188465Y5110734D01*
X1197610Y5115305D01*
X1206754Y5124450D01*
X1211071Y5133594D01*
X1211071Y5147310D01*
X1188465Y5147310D02*
G01*
X1211071Y5147310D01*
X1241297Y5174487D02*
G01*
X1241297Y5110734D01*
X1241297Y5156200D02*
G01*
X1254760Y5169915D01*
X1263904Y5174487D01*
X1277620Y5174487D01*
X1286510Y5169915D01*
X1291081Y5156200D01*
X1291081Y5110734D01*
X1375663Y5206237D02*
G01*
X1375663Y5110734D01*
X1375663Y5160771D02*
G01*
X1366520Y5169915D01*
X1357629Y5174487D01*
X1343913Y5174487D01*
X1334770Y5169915D01*
X1325626Y5160771D01*
X1321307Y5147310D01*
X1321307Y5138165D01*
X1325626Y5124450D01*
X1334770Y5115305D01*
X1343913Y5110734D01*
X1357629Y5110734D01*
X1366520Y5115305D01*
X1375663Y5124450D01*
X1629410Y5206237D02*
G01*
X1583944Y5206237D01*
X1579371Y5165344D01*
X1583944Y5169915D01*
X1597405Y5174487D01*
X1611121Y5174487D01*
X1624837Y5169915D01*
X1633981Y5160771D01*
X1638554Y5147310D01*
X1638554Y5138165D01*
X1633981Y5124450D01*
X1624837Y5115305D01*
X1611121Y5110734D01*
X1597405Y5110734D01*
X1583944Y5115305D01*
X1579371Y5119878D01*
X1574800Y5129021D01*
X1668526Y5206237D02*
G01*
X1704847Y5110734D01*
X1741170Y5206237D02*
G01*
X1704847Y5110734D01*
D11*
X2197100Y6046213D02*
G01*
X2197100Y5937247D01*
X2197100Y6046213D02*
G01*
X2243836Y6046213D01*
X2259329Y6041133D01*
X2264663Y6035799D01*
X2269743Y6025385D01*
X2269743Y6014971D01*
X2264663Y6004557D01*
X2259329Y5999477D01*
X2243836Y5994397D01*
X2197100Y5994397D01*
X2233422Y5994397D02*
G01*
X2269743Y5937247D01*
X2304034Y6025385D02*
G01*
X2314447Y6030719D01*
X2330195Y6046213D01*
X2330195Y5937247D01*
X2364486Y6025385D02*
G01*
X2374900Y6030719D01*
X2390393Y6046213D01*
X2390393Y5937247D01*
X2429763Y6020305D02*
G01*
X2429763Y6025385D01*
X2435097Y6035799D01*
X2440177Y6041133D01*
X2450591Y6046213D01*
X2471420Y6046213D01*
X2481834Y6041133D01*
X2486913Y6035799D01*
X2492247Y6025385D01*
X2492247Y6014971D01*
X2486913Y6004557D01*
X2476500Y5989063D01*
X2424684Y5937247D01*
X2497327Y5937247D01*
X1016000Y6046213D02*
G01*
X1016000Y5937247D01*
X1016000Y6046213D02*
G01*
X1062736Y6046213D01*
X1078229Y6041133D01*
X1083563Y6035799D01*
X1088644Y6025385D01*
X1088644Y6014971D01*
X1083563Y6004557D01*
X1078229Y5999477D01*
X1062736Y5994397D01*
X1016000Y5994397D01*
X1052321Y5994397D02*
G01*
X1088644Y5937247D01*
X1122934Y6025385D02*
G01*
X1133347Y6030719D01*
X1149095Y6046213D01*
X1149095Y5937247D01*
X1188465Y6020305D02*
G01*
X1188465Y6025385D01*
X1193800Y6035799D01*
X1198879Y6041133D01*
X1209294Y6046213D01*
X1230121Y6046213D01*
X1240536Y6041133D01*
X1245615Y6035799D01*
X1250950Y6025385D01*
X1250950Y6014971D01*
X1245615Y6004557D01*
X1235202Y5989063D01*
X1183386Y5937247D01*
X1256029Y5937247D01*
X1295400Y6020305D02*
G01*
X1295400Y6025385D01*
X1300734Y6035799D01*
X1305813Y6041133D01*
X1316228Y6046213D01*
X1337055Y6046213D01*
X1347470Y6041133D01*
X1352550Y6035799D01*
X1357884Y6025385D01*
X1357884Y6014971D01*
X1352550Y6004557D01*
X1342389Y5989063D01*
X1290320Y5937247D01*
X1362963Y5937247D01*
X6121527Y6947913D02*
G01*
X6121527Y6838947D01*
X6194170Y6947913D02*
G01*
X6121527Y6875269D01*
X6147434Y6901177D02*
G01*
X6194170Y6838947D01*
X6228461Y6927085D02*
G01*
X6238875Y6932419D01*
X6254368Y6947913D01*
X6254368Y6838947D01*
X6293993Y6922005D02*
G01*
X6293993Y6927085D01*
X6299072Y6937499D01*
X6304406Y6942833D01*
X6314566Y6947913D01*
X6335395Y6947913D01*
X6345809Y6942833D01*
X6351143Y6937499D01*
X6356222Y6927085D01*
X6356222Y6916671D01*
X6351143Y6906257D01*
X6340729Y6890763D01*
X6288659Y6838947D01*
X6361556Y6838947D01*
X3568827Y6947913D02*
G01*
X3568827Y6838947D01*
X3641470Y6947913D02*
G01*
X3568827Y6875269D01*
X3594734Y6901177D02*
G01*
X3641470Y6838947D01*
X3675761Y6927085D02*
G01*
X3686175Y6932419D01*
X3701668Y6947913D01*
X3701668Y6838947D01*
X3735959Y6927085D02*
G01*
X3746372Y6932419D01*
X3761866Y6947913D01*
X3761866Y6838947D01*
D12*
X3378200Y7112000D02*
G01*
X3149600Y7112000D01*
X3340100Y7112000D02*
G01*
X3187700Y7048500D01*
X3340100Y7112000D02*
G01*
X3187700Y7180206D01*
X3340100Y7175500D02*
G01*
X3340100Y7048500D01*
X3187700Y7175500D02*
G01*
X3187700Y7048500D01*
X5918200Y7112000D02*
G01*
X5689600Y7112000D01*
X5880100Y7112000D02*
G01*
X5727700Y7048500D01*
X5880100Y7112000D02*
G01*
X5727700Y7180206D01*
X5880100Y7175500D02*
G01*
X5880100Y7048500D01*
X5727700Y7175500D02*
G01*
X5727700Y7048500D01*
D13*
X444500Y5067297D02*
G01*
X444500Y2057397D01*
X1727200Y2057397D01*
X1727200Y5067297D01*
X444500Y5067297D01*
X7073900Y965197D02*
G01*
X7327900Y965197D01*
X7327900Y711197D01*
X7073900Y711197D01*
X7073900Y965197D01*
X1435100Y6515097D02*
G01*
X1435100Y7619997D01*
X2298700Y7619997D01*
X2298700Y6095997D01*
X1435100Y6095997D01*
X241300Y6515097D02*
G01*
X241300Y7619997D01*
X1104900Y7619997D01*
X1104900Y6095997D01*
X241300Y6095997D01*
X1435100Y6095997D02*
G01*
X1435100Y6515097D01*
X241300Y6095997D02*
G01*
X241300Y6515097D01*
X6172200Y5067297D02*
G01*
X6172200Y2057397D01*
X7454900Y2057397D01*
X7454900Y5067297D01*
X6172200Y5067297D01*
X3314700Y5067297D02*
G01*
X3314700Y2057397D01*
X4597400Y2057397D01*
X4597400Y5067297D01*
X3314700Y5067297D01*
X4749800Y5067297D02*
G01*
X4749800Y2057397D01*
X6032500Y2057397D01*
X6032500Y5067297D01*
X4749800Y5067297D01*
X1879600Y5067297D02*
G01*
X1879600Y2057397D01*
X3162300Y2057397D01*
X3162300Y5067297D01*
X1879600Y5067297D01*
X2451100Y1512135D02*
G01*
X266700Y1512135D01*
X266700Y800935D01*
X2451100Y800935D01*
X2451100Y1512135D01*
X2781300Y355597D02*
G01*
X2781300Y1701797D01*
X6591300Y1701797D01*
X6591300Y355597D01*
X2781300Y355597D01*
D11*
X2292220Y5670588D02*
G01*
X2428212Y5670588D01*
X2428212Y5886406D01*
X2292220Y5886406D01*
X2101979Y5670588D02*
G01*
X1965987Y5670588D01*
X1965987Y5886406D01*
X2101979Y5886406D01*
X1111120Y5670588D02*
G01*
X1247112Y5670588D01*
X1247112Y5886406D01*
X1111120Y5886406D01*
X920879Y5670588D02*
G01*
X784887Y5670588D01*
X784887Y5886406D01*
X920879Y5886406D01*
D14*
X5816000Y6124882D02*
G01*
X5816000Y6619796D01*
X5816000Y5419798D02*
G01*
X5816000Y5914671D01*
X5816000Y5419801D02*
G01*
X5714212Y5419798D01*
X5816000Y6619793D02*
G01*
X5714212Y6619796D01*
X6762038Y5594093D02*
G01*
X6762038Y5988555D01*
X6660210Y6089901D02*
G01*
X6825259Y6250683D01*
X5342026Y6199797D02*
G01*
X5342026Y6392517D01*
X6205626Y6392517D01*
X6205626Y6092517D01*
X6208039Y6090102D01*
X6609638Y6090102D01*
X6660438Y6090102D01*
D13*
X7095309Y5239799D02*
G01*
X5175298Y5239799D01*
X7095296Y6799800D02*
G01*
X5175285Y6799800D01*
X7095299Y5239796D02*
G01*
X7095299Y6799798D01*
X6755129Y6444485D02*
G01*
X6755129Y6221727D01*
X5175285Y6799800D02*
G01*
X5175285Y6049266D01*
X5175285Y5990328D02*
G01*
X5175285Y5239799D01*
X5667705Y6119797D02*
G01*
X5967704Y6119797D01*
X5967704Y5919797D01*
X5667705Y5919797D01*
X5667705Y6119797D01*
D14*
X3263300Y6124882D02*
G01*
X3263300Y6619796D01*
X3263300Y5419798D02*
G01*
X3263300Y5914671D01*
X3263300Y5419801D02*
G01*
X3161512Y5419798D01*
X3263300Y6619793D02*
G01*
X3161512Y6619796D01*
X4209338Y5594093D02*
G01*
X4209338Y5988555D01*
X4107510Y6089901D02*
G01*
X4272559Y6250683D01*
X2789326Y6199797D02*
G01*
X2789326Y6392517D01*
X3652926Y6392517D01*
X3652926Y6092517D01*
X3655339Y6090102D01*
X4056938Y6090102D01*
X4107738Y6090102D01*
D13*
X4542609Y5239799D02*
G01*
X2622598Y5239799D01*
X4542596Y6799800D02*
G01*
X2622585Y6799800D01*
X4542599Y5239796D02*
G01*
X4542599Y6799798D01*
X4202429Y6444485D02*
G01*
X4202429Y6221727D01*
X2622585Y6799800D02*
G01*
X2622585Y6049266D01*
X2622585Y5990328D02*
G01*
X2622585Y5239799D01*
X3115005Y6119797D02*
G01*
X3415004Y6119797D01*
X3415004Y5919797D01*
X3115005Y5919797D01*
X3115005Y6119797D01*
G75*
G01
X5335219Y5339791D02*
G03X5335219Y5339791I-50013J0D01*
G75*
G01
X2782519Y5339791D02*
G03X2782519Y5339791I-50013J0D01*
M02*
