M48
METRIC,LZ,000.000
;FILE_FORMAT=3:3
;TYPE=PLATED
;Layer: PTH_Through
;EasyEDA v6.5.50, 2025-05-27 18:24:41
;5b2fd3c6aefe434ba720ef86c0c68af7,b37a74ae5ac9402f918d5afa9d52dbed,10
;Gerber Generator version 0.2
;Holesize 1 = 0.915 mm
T01C0.915
;Holesize 2 = 1.301 mm
T02C1.301
;Holesize 3 = 1.524 mm
T03C1.524
%
G05
G90
T01
X016002Y017907
X020066Y017907
X068199Y017907
X072263Y017907
X025527Y017907
X004953Y053213
X008636Y053213
X012573Y053213
X016510Y053213
X031750Y073533
X057404Y073660
X034290Y073533
X059690Y073660
T02
X006985Y048006
X014605Y048006
X006985Y033020
X006985Y027980
X006985Y022940
X014605Y022940
X014605Y027980
X014605Y033020
X061849Y007747
X061849Y012700
X056896Y007747
X056896Y012700
X051943Y007747
X051943Y012700
X046990Y007747
X046990Y012700
X042037Y007747
X042037Y012700
X037084Y012700
X037084Y007747
X032131Y007747
X032131Y012700
X028956Y033020
X028956Y027980
X028956Y022940
X021336Y022940
X021336Y027980
X021336Y033020
X028956Y048006
X021336Y048006
X050038Y048006
X057658Y048006
X050038Y033020
X050038Y027980
X050038Y022940
X057658Y022940
X057658Y027980
X057658Y033020
X043307Y033020
X043307Y027980
X043307Y022940
X035687Y022940
X035687Y027980
X035687Y033020
X043307Y048006
X035687Y048006
X071882Y033020
X071882Y027980
X071882Y022940
X064262Y022940
X064262Y027980
X064262Y033020
X071882Y048006
X064262Y048006
X007747Y011692
X002667Y011694
X019431Y011692
X024511Y011684
X016256Y062611
X018669Y060071
X020955Y062611
X009017Y062611
X006731Y060071
X004318Y062611
T03
X067552Y054198
X053352Y060198
X055352Y066198
X055352Y054198
X067552Y066197
X042025Y054198
X027825Y060198
X029825Y066198
X029825Y054198
X042025Y066197
M30
