G04 Layer: TopLayer*
G04 EasyEDA v6.5.50, 2025-05-27 18:24:41*
G04 5b2fd3c6aefe434ba720ef86c0c68af7,b37a74ae5ac9402f918d5afa9d52dbed,10*
G04 Gerber Generator version 0.2*
G04 Scale: 100 percent, Rotated: No, Reflected: No *
G04 Dimensions in millimeters *
G04 leading zeros omitted , absolute positions ,4 integer and 5 decimal *
%FSLAX45Y45*%
%MOMM*%

%AMMACRO1*21,1,$1,$2,0,0,$3*%
%ADD10C,0.2000*%
%ADD11C,0.2540*%
%ADD12C,2.8000*%
%ADD13C,2.2000*%
%ADD14MACRO1,1.701X1.2075X90.0000*%
%ADD15C,2.7940*%
%ADD16C,2.7000*%
%ADD17C,1.5240*%
%ADD18C,0.0141*%

%LPD*%
D10*
X698500Y4800600D02*
G01*
X482600Y4800600D01*
X152400Y4470400D01*
X152400Y1283665D01*
X266700Y1169365D01*
D11*
X2049272Y5778500D02*
G01*
X2049272Y5617971D01*
X1981200Y5549900D01*
X1092200Y5549900D01*
X863600Y5321300D01*
X1460500Y4800600D02*
G01*
X1460500Y4305300D01*
X2133600Y3632200D01*
X2133600Y3302000D01*
D12*
X3568700Y2294001D02*
G01*
X3568700Y1993900D01*
X3213100Y1638300D01*
X3213100Y774700D01*
X4330700Y2293998D02*
G01*
X3568700Y2293998D01*
X2133600Y3301997D02*
G01*
X2895600Y3301997D01*
D11*
X2344973Y5778497D02*
G01*
X2344973Y6176718D01*
X2260600Y6261097D01*
X2095500Y6261097D01*
X1163878Y5778497D02*
G01*
X1163878Y6151318D01*
X1054100Y6261097D01*
X901700Y6261097D01*
X2049277Y5778497D02*
G01*
X1739900Y5778497D01*
X1625600Y5892797D01*
X1625600Y6261097D01*
X868121Y5778497D02*
G01*
X558800Y5778497D01*
X431800Y5905497D01*
X431800Y6261097D01*
X1163873Y5778497D02*
G01*
X1163873Y5697776D01*
X774700Y1169235D02*
G01*
X1385138Y1169235D01*
X2006600Y1790697D01*
X2552700Y1790697D02*
G01*
X3213100Y1790697D01*
X868121Y5778497D02*
G01*
X868121Y5694118D01*
X495300Y5321297D01*
X5535193Y5419798D02*
G01*
X5535193Y5408190D01*
X5270500Y5143497D01*
X3258794Y5143497D01*
X2982493Y5419798D01*
X1651000Y5321297D02*
G01*
X2883992Y5321297D01*
X2982493Y5419798D01*
X2344927Y5778497D02*
G01*
X2344927Y5583425D01*
X2222500Y5460997D01*
X1397000Y5460997D01*
X1257300Y5321297D01*
X1866900Y6007097D02*
G01*
X1866900Y6337297D01*
X2159000Y6629397D01*
X2972892Y6629397D01*
X2982493Y6619796D01*
X673100Y6007100D02*
G01*
X673100Y6400800D01*
X2006600Y7734300D01*
X4914900Y7734300D01*
X5535168Y7114031D01*
X5535168Y6619747D01*
X2982493Y6619798D02*
G01*
X2982493Y7160793D01*
X3175000Y7353300D01*
X5535168Y7114031D02*
G01*
X5535168Y7160768D01*
X5740400Y7366000D01*
X3429000Y7353300D02*
G01*
X3429000Y5866384D01*
X2982468Y5419852D01*
X5969000Y7366000D02*
G01*
X5969000Y5853684D01*
X5535168Y5419852D01*
X7188200Y2797987D02*
G01*
X6988987Y2797987D01*
X6794500Y2603500D01*
X6794500Y2222500D01*
X7226300Y1790700D01*
X5676900Y1790700D02*
G01*
X5511800Y1790700D01*
X5372100Y1930400D01*
X5372100Y2641600D01*
X5528563Y2798063D01*
X5765800Y2798063D01*
X6819900Y1790700D02*
G01*
X5676900Y1790700D01*
X6851675Y5516313D02*
G01*
X6755208Y5419841D01*
D13*
X2895600Y3302000D02*
G01*
X3035300Y3302000D01*
X3238500Y3098800D01*
X3238500Y2451100D01*
X3390900Y2298700D01*
X3564000Y2298700D01*
X3568700Y2294001D01*
D14*
G01*
X2344976Y5778497D03*
G01*
X2049223Y5778497D03*
G01*
X1163876Y5778497D03*
G01*
X868123Y5778497D03*
D15*
G01*
X6755206Y5419852D03*
G01*
X5335193Y6019800D03*
G01*
X5535193Y6619798D03*
G01*
X5535193Y5419801D03*
G01*
X6755206Y6619747D03*
G01*
X4202506Y5419852D03*
G01*
X2782493Y6019800D03*
G01*
X2982493Y6619798D03*
G01*
X2982493Y5419801D03*
G01*
X4202506Y6619747D03*
D16*
G01*
X698500Y4800600D03*
G01*
X1460500Y4800600D03*
G01*
X698500Y3302000D03*
G01*
X698500Y2797987D03*
G01*
X698500Y2294001D03*
G01*
X1460500Y2294001D03*
G01*
X1460500Y2797987D03*
G01*
X1460500Y3302000D03*
G01*
X6184900Y774700D03*
G01*
X6184900Y1270000D03*
G01*
X5689600Y774700D03*
G01*
X5689600Y1270000D03*
G01*
X5194300Y774700D03*
G01*
X5194300Y1270000D03*
G01*
X4699000Y774700D03*
G01*
X4699000Y1270000D03*
G01*
X4203700Y774700D03*
G01*
X4203700Y1270000D03*
G01*
X3708400Y1270000D03*
G01*
X3708400Y774700D03*
G01*
X3213100Y774700D03*
G01*
X3213100Y1270000D03*
G01*
X2895600Y3302000D03*
G01*
X2895600Y2797987D03*
G01*
X2895600Y2294001D03*
G01*
X2133600Y2294001D03*
G01*
X2133600Y2797987D03*
G01*
X2133600Y3302000D03*
G01*
X2895600Y4800600D03*
G01*
X2133600Y4800600D03*
G01*
X5003800Y4800600D03*
G01*
X5765800Y4800600D03*
G01*
X5003800Y3302000D03*
G01*
X5003800Y2797987D03*
G01*
X5003800Y2294001D03*
G01*
X5765800Y2294001D03*
G01*
X5765800Y2797987D03*
G01*
X5765800Y3302000D03*
G01*
X4330700Y3302000D03*
G01*
X4330700Y2797987D03*
G01*
X4330700Y2294001D03*
G01*
X3568700Y2294001D03*
G01*
X3568700Y2797987D03*
G01*
X3568700Y3302000D03*
G01*
X4330700Y4800600D03*
G01*
X3568700Y4800600D03*
G01*
X7188200Y3302000D03*
G01*
X7188200Y2797987D03*
G01*
X7188200Y2294001D03*
G01*
X6426200Y2294001D03*
G01*
X6426200Y2797987D03*
G01*
X6426200Y3302000D03*
G01*
X7188200Y4800600D03*
G01*
X6426200Y4800600D03*
G01*
X774700Y1169238D03*
G01*
X266700Y1169365D03*
G01*
X1943100Y1169238D03*
G01*
X2451100Y1168400D03*
D17*
G01*
X1600200Y1790700D03*
G01*
X2006600Y1790700D03*
D16*
G01*
X1625600Y6261100D03*
G01*
X1866900Y6007100D03*
G01*
X2095500Y6261100D03*
G01*
X901700Y6261100D03*
G01*
X673100Y6007100D03*
G01*
X431800Y6261100D03*
D17*
G01*
X6819900Y1790700D03*
G01*
X7226300Y1790700D03*
G01*
X2552700Y1790700D03*
G01*
X495300Y5321300D03*
G01*
X863600Y5321300D03*
G01*
X1257300Y5321300D03*
G01*
X1651000Y5321300D03*
G01*
X3175000Y7353300D03*
G01*
X5740400Y7366000D03*
G01*
X3429000Y7353300D03*
G01*
X5969000Y7366000D03*
M02*
