G04 Layer: TopPasteMaskLayer*
G04 EasyEDA v6.5.50, 2025-05-27 18:24:41*
G04 5b2fd3c6aefe434ba720ef86c0c68af7,b37a74ae5ac9402f918d5afa9d52dbed,10*
G04 Gerber Generator version 0.2*
G04 Scale: 100 percent, Rotated: No, Reflected: No *
G04 Dimensions in millimeters *
G04 leading zeros omitted , absolute positions ,4 integer and 5 decimal *
%FSLAX45Y45*%
%MOMM*%

%ADD10C,0.0001*%

%LPD*%
G36*
X2294585Y5863539D02*
G01*
X2284577Y5853531D01*
X2284577Y5817412D01*
X2294585Y5807405D01*
X2315667Y5807405D01*
X2325674Y5797397D01*
X2325674Y5759602D01*
X2315667Y5749594D01*
X2294585Y5749594D01*
X2284577Y5739587D01*
X2284577Y5703468D01*
X2294585Y5693460D01*
X2395372Y5693460D01*
X2405329Y5703468D01*
X2405329Y5853531D01*
X2395372Y5863539D01*
G37*
G36*
X1998827Y5863539D02*
G01*
X1988870Y5853531D01*
X1988870Y5703468D01*
X1998827Y5693460D01*
X2099614Y5693460D01*
X2109622Y5703468D01*
X2109622Y5739587D01*
X2099614Y5749594D01*
X2078532Y5749594D01*
X2068525Y5759602D01*
X2068525Y5797397D01*
X2078532Y5807405D01*
X2099614Y5807405D01*
X2109622Y5817412D01*
X2109622Y5853531D01*
X2099614Y5863539D01*
G37*
G36*
X1113485Y5863539D02*
G01*
X1103477Y5853531D01*
X1103477Y5817412D01*
X1113485Y5807405D01*
X1134567Y5807405D01*
X1144574Y5797397D01*
X1144574Y5759602D01*
X1134567Y5749594D01*
X1113485Y5749594D01*
X1103477Y5739587D01*
X1103477Y5703468D01*
X1113485Y5693460D01*
X1214272Y5693460D01*
X1224229Y5703468D01*
X1224229Y5853531D01*
X1214272Y5863539D01*
G37*
G36*
X817727Y5863539D02*
G01*
X807770Y5853531D01*
X807770Y5703468D01*
X817727Y5693460D01*
X918514Y5693460D01*
X928522Y5703468D01*
X928522Y5739587D01*
X918514Y5749594D01*
X897432Y5749594D01*
X887425Y5759602D01*
X887425Y5797397D01*
X897432Y5807405D01*
X918514Y5807405D01*
X928522Y5817412D01*
X928522Y5853531D01*
X918514Y5863539D01*
G37*
M02*
