M48
METRIC,LZ,000.000
;FILE_FORMAT=3:3
;TYPE=PLATED
;Layer: PTH_Through
;EasyEDA v6.5.50, 2025-05-27 18:24:41
;52539cb3a7ae454bb971d49213b625aa,b37a74ae5ac9402f918d5afa9d52dbed,10
;Gerber Generator version 0.2
;Holesize 1 = 0.310 mm
T01C0.310
;Holesize 2 = 0.915 mm
T02C0.915
;Holesize 3 = 1.301 mm
T03C1.301
%
G05
G90
T01
X050419Y030861
X047879Y028321
X003937Y023114
X003937Y017145
X052959Y030480
X006096Y011049
X027813Y011684
X027813Y017653
X027813Y023749
T02
X037719Y036195
X040259Y036195
X042799Y036195
X045339Y036195
X047879Y036195
X050419Y036195
X052959Y036195
X055499Y036195
X058039Y036195
X060579Y036195
X063119Y036195
X065659Y036195
X068199Y036195
X070739Y036195
X073279Y036195
X073279Y051435
X070739Y051435
X068199Y051435
X065659Y051435
X063119Y051435
X060579Y051435
X058039Y051435
X055499Y051435
X052959Y051435
X050419Y051435
X047879Y051435
X045339Y051435
X042799Y051435
X040259Y051435
X037719Y051435
X010541Y036449
X008128Y036449
X010414Y042164
X008001Y042164
X008001Y048178
X010414Y048178
X026670Y013335
X029083Y013335
X026670Y019304
X029083Y019304
X029083Y025400
X026670Y025400
X025654Y002159
X020193Y002159
X016129Y002159
X068453Y002159
X072136Y002159
X016680Y032598
X012743Y032598
X008806Y032598
X005123Y032598
T03
X044704Y015748
X044704Y020828
X074168Y010668
X074041Y025908
M30
