G04 Layer: TopSolderMaskLayer*
G04 EasyEDA v6.5.50, 2025-05-27 18:24:41*
G04 52539cb3a7ae454bb971d49213b625aa,b37a74ae5ac9402f918d5afa9d52dbed,10*
G04 Gerber Generator version 0.2*
G04 Scale: 100 percent, Rotated: No, Reflected: No *
G04 Dimensions in millimeters *
G04 leading zeros omitted , absolute positions ,4 integer and 5 decimal *
%FSLAX45Y45*%
%MOMM*%

%AMMACRO1*4,1,8,-0.6248,-0.9012,-0.6546,-0.8712,-0.6546,0.8715,-0.6248,0.9012,0.6246,0.9012,0.6546,0.8715,0.6546,-0.8712,0.6246,-0.9012,-0.6248,-0.9012,0*%
%ADD10C,1.6256*%
%ADD11MACRO1*%
%ADD12C,2.8016*%
%ADD13C,0.0135*%

%LPD*%
D10*
G01*
X3771900Y3619500D03*
G01*
X4025900Y3619500D03*
G01*
X4279900Y3619500D03*
G01*
X4533900Y3619500D03*
G01*
X4787900Y3619500D03*
G01*
X5041900Y3619500D03*
G01*
X5295900Y3619500D03*
G01*
X5549900Y3619500D03*
G01*
X5803900Y3619500D03*
G01*
X6057900Y3619500D03*
G01*
X6311900Y3619500D03*
G01*
X6565900Y3619500D03*
G01*
X6819900Y3619500D03*
G01*
X7073900Y3619500D03*
G01*
X7327900Y3619500D03*
G01*
X7327900Y5143500D03*
G01*
X7073900Y5143500D03*
G01*
X6819900Y5143500D03*
G01*
X6565900Y5143500D03*
G01*
X6311900Y5143500D03*
G01*
X6057900Y5143500D03*
G01*
X5803900Y5143500D03*
G01*
X5549900Y5143500D03*
G01*
X5295900Y5143500D03*
G01*
X5041900Y5143500D03*
G01*
X4787900Y5143500D03*
G01*
X4533900Y5143500D03*
G01*
X4279900Y5143500D03*
G01*
X4025900Y5143500D03*
G01*
X3771900Y5143500D03*
D11*
G01*
X1252778Y1333500D03*
G01*
X957021Y1333500D03*
G01*
X1811578Y1333500D03*
G01*
X1515821Y1333500D03*
G01*
X2344978Y1333500D03*
G01*
X2049221Y1333500D03*
G01*
X3437178Y1333500D03*
G01*
X3141421Y1333500D03*
G01*
X3995978Y1333500D03*
G01*
X3700221Y1333500D03*
G01*
X693978Y1333500D03*
G01*
X398221Y1333500D03*
G01*
X1252778Y1930400D03*
G01*
X957021Y1930400D03*
G01*
X1811578Y1930400D03*
G01*
X1515821Y1930400D03*
G01*
X2344978Y1930400D03*
G01*
X2049221Y1930400D03*
G01*
X3437178Y1930400D03*
G01*
X3141421Y1930400D03*
G01*
X3995978Y1930400D03*
G01*
X3700221Y1930400D03*
G01*
X693978Y1930400D03*
G01*
X398221Y1930400D03*
G01*
X693978Y2540000D03*
G01*
X398221Y2540000D03*
G01*
X3995978Y2540000D03*
G01*
X3700221Y2540000D03*
G01*
X3437178Y2540000D03*
G01*
X3141421Y2540000D03*
G01*
X2344978Y2540000D03*
G01*
X2049221Y2540000D03*
G01*
X1811578Y2540000D03*
G01*
X1515821Y2540000D03*
G01*
X1252778Y2540000D03*
G01*
X957021Y2540000D03*
G01*
X2129078Y4826000D03*
G01*
X1833321Y4826000D03*
G01*
X2141778Y3653078D03*
G01*
X1846021Y3653078D03*
G01*
X2129078Y4224578D03*
G01*
X1833321Y4224578D03*
D10*
G01*
X1054100Y3644900D03*
G01*
X812800Y3644900D03*
G01*
X1041400Y4216400D03*
G01*
X800100Y4216400D03*
G01*
X800100Y4817821D03*
G01*
X1041400Y4817821D03*
G01*
X2667000Y1333500D03*
G01*
X2908300Y1333500D03*
G01*
X2667000Y1930400D03*
G01*
X2908300Y1930400D03*
G01*
X2908300Y2540000D03*
G01*
X2667000Y2540000D03*
D12*
G01*
X4470400Y1574800D03*
G01*
X4470400Y2082800D03*
G01*
X7416800Y1066800D03*
G01*
X7404100Y2590800D03*
D10*
G01*
X2565400Y215900D03*
G01*
X2019300Y215900D03*
G01*
X1612900Y215900D03*
G01*
X6845300Y215900D03*
G01*
X7213600Y215900D03*
G01*
X1668018Y3259836D03*
G01*
X1274318Y3259836D03*
G01*
X880618Y3259836D03*
G01*
X512318Y3259836D03*
M02*
