G04 Layer: TopSilkscreenLayer*
G04 EasyEDA v6.5.50, 2025-05-27 18:24:41*
G04 52539cb3a7ae454bb971d49213b625aa,b37a74ae5ac9402f918d5afa9d52dbed,10*
G04 Gerber Generator version 0.2*
G04 Scale: 100 percent, Rotated: No, Reflected: No *
G04 Dimensions in millimeters *
G04 leading zeros omitted , absolute positions ,4 integer and 5 decimal *
%FSLAX45Y45*%
%MOMM*%

%ADD10C,0.1524*%
%ADD11C,0.2032*%
%ADD12C,0.2000*%
%ADD13C,0.2540*%
%ADD14C,0.0146*%

%LPD*%
D10*
X482600Y3895344D02*
G01*
X482600Y3786378D01*
X482600Y3786378D02*
G01*
X544829Y3786378D01*
X579120Y3895344D02*
G01*
X579120Y3786378D01*
X579120Y3895344D02*
G01*
X646684Y3895344D01*
X579120Y3843528D02*
G01*
X620776Y3843528D01*
X579120Y3786378D02*
G01*
X646684Y3786378D01*
X680973Y3895344D02*
G01*
X680973Y3786378D01*
X680973Y3895344D02*
G01*
X717550Y3895344D01*
X733044Y3890263D01*
X743457Y3879850D01*
X748537Y3869436D01*
X753871Y3853942D01*
X753871Y3827779D01*
X748537Y3812286D01*
X743457Y3801871D01*
X733044Y3791457D01*
X717550Y3786378D01*
X680973Y3786378D01*
X793242Y3859021D02*
G01*
X824484Y3786378D01*
X855726Y3859021D02*
G01*
X824484Y3786378D01*
X814070Y3765550D01*
X803655Y3755136D01*
X793242Y3750055D01*
X788162Y3750055D01*
X890015Y3827779D02*
G01*
X952245Y3827779D01*
X952245Y3838194D01*
X947165Y3848607D01*
X941831Y3853942D01*
X931418Y3859021D01*
X915923Y3859021D01*
X905510Y3853942D01*
X895095Y3843528D01*
X890015Y3827779D01*
X890015Y3817365D01*
X895095Y3801871D01*
X905510Y3791457D01*
X915923Y3786378D01*
X931418Y3786378D01*
X941831Y3791457D01*
X952245Y3801871D01*
X986536Y3750055D02*
G01*
X1080007Y3750055D01*
X1114297Y3859021D02*
G01*
X1114297Y3786378D01*
X1114297Y3827779D02*
G01*
X1119631Y3843528D01*
X1130045Y3853942D01*
X1140460Y3859021D01*
X1155954Y3859021D01*
X1190244Y3827779D02*
G01*
X1252473Y3827779D01*
X1252473Y3838194D01*
X1247394Y3848607D01*
X1242060Y3853942D01*
X1231900Y3859021D01*
X1216152Y3859021D01*
X1205737Y3853942D01*
X1195323Y3843528D01*
X1190244Y3827779D01*
X1190244Y3817365D01*
X1195323Y3801871D01*
X1205737Y3791457D01*
X1216152Y3786378D01*
X1231900Y3786378D01*
X1242060Y3791457D01*
X1252473Y3801871D01*
X1286763Y3859021D02*
G01*
X1318005Y3786378D01*
X1349247Y3859021D02*
G01*
X1318005Y3786378D01*
X469900Y4466844D02*
G01*
X469900Y4357878D01*
X469900Y4357878D02*
G01*
X532129Y4357878D01*
X566420Y4466844D02*
G01*
X566420Y4357878D01*
X566420Y4466844D02*
G01*
X633984Y4466844D01*
X566420Y4415028D02*
G01*
X608076Y4415028D01*
X566420Y4357878D02*
G01*
X633984Y4357878D01*
X668273Y4466844D02*
G01*
X668273Y4357878D01*
X668273Y4466844D02*
G01*
X704850Y4466844D01*
X720344Y4461763D01*
X730757Y4451350D01*
X735837Y4440936D01*
X741171Y4425442D01*
X741171Y4399279D01*
X735837Y4383786D01*
X730757Y4373371D01*
X720344Y4362957D01*
X704850Y4357878D01*
X668273Y4357878D01*
X837692Y4430521D02*
G01*
X837692Y4347463D01*
X832612Y4331715D01*
X827278Y4326636D01*
X816863Y4321555D01*
X801370Y4321555D01*
X790955Y4326636D01*
X837692Y4415028D02*
G01*
X827278Y4425442D01*
X816863Y4430521D01*
X801370Y4430521D01*
X790955Y4425442D01*
X780542Y4415028D01*
X775462Y4399279D01*
X775462Y4388865D01*
X780542Y4373371D01*
X790955Y4362957D01*
X801370Y4357878D01*
X816863Y4357878D01*
X827278Y4362957D01*
X837692Y4373371D01*
X871981Y4430521D02*
G01*
X871981Y4357878D01*
X871981Y4409694D02*
G01*
X887729Y4425442D01*
X897889Y4430521D01*
X913637Y4430521D01*
X924052Y4425442D01*
X929131Y4409694D01*
X929131Y4357878D01*
X963421Y4321555D02*
G01*
X1056894Y4321555D01*
X1117345Y4430521D02*
G01*
X1106931Y4425442D01*
X1096518Y4415028D01*
X1091184Y4399279D01*
X1091184Y4388865D01*
X1096518Y4373371D01*
X1106931Y4362957D01*
X1117345Y4357878D01*
X1132839Y4357878D01*
X1143254Y4362957D01*
X1153668Y4373371D01*
X1158747Y4388865D01*
X1158747Y4399279D01*
X1153668Y4415028D01*
X1143254Y4425442D01*
X1132839Y4430521D01*
X1117345Y4430521D01*
X1193037Y4430521D02*
G01*
X1193037Y4357878D01*
X1193037Y4409694D02*
G01*
X1208786Y4425442D01*
X1219200Y4430521D01*
X1234694Y4430521D01*
X1245107Y4425442D01*
X1250187Y4409694D01*
X1250187Y4357878D01*
X469900Y5068315D02*
G01*
X469900Y4959350D01*
X469900Y4959350D02*
G01*
X532129Y4959350D01*
X566420Y5068315D02*
G01*
X566420Y4959350D01*
X566420Y5068315D02*
G01*
X633984Y5068315D01*
X566420Y5016500D02*
G01*
X608076Y5016500D01*
X566420Y4959350D02*
G01*
X633984Y4959350D01*
X668273Y5068315D02*
G01*
X668273Y4959350D01*
X668273Y5068315D02*
G01*
X704850Y5068315D01*
X720344Y5063236D01*
X730757Y5052821D01*
X735837Y5042407D01*
X741171Y5026660D01*
X741171Y5000752D01*
X735837Y4985257D01*
X730757Y4974844D01*
X720344Y4964429D01*
X704850Y4959350D01*
X668273Y4959350D01*
X775462Y5031994D02*
G01*
X775462Y4959350D01*
X775462Y5000752D02*
G01*
X780542Y5016500D01*
X790955Y5026660D01*
X801370Y5031994D01*
X816863Y5031994D01*
X913637Y5068315D02*
G01*
X913637Y4959350D01*
X913637Y5016500D02*
G01*
X903223Y5026660D01*
X892810Y5031994D01*
X877315Y5031994D01*
X866902Y5026660D01*
X856487Y5016500D01*
X851154Y5000752D01*
X851154Y4990337D01*
X856487Y4974844D01*
X866902Y4964429D01*
X877315Y4959350D01*
X892810Y4959350D01*
X903223Y4964429D01*
X913637Y4974844D01*
X947928Y4922773D02*
G01*
X1041400Y4922773D01*
X1117345Y5068315D02*
G01*
X1106931Y5068315D01*
X1096518Y5063236D01*
X1091184Y5047487D01*
X1091184Y4959350D01*
X1075689Y5031994D02*
G01*
X1112012Y5031994D01*
X1151636Y5068315D02*
G01*
X1151636Y4959350D01*
X1201420Y5068315D02*
G01*
X1201420Y4979923D01*
X1206500Y4964429D01*
X1216913Y4959350D01*
X1227328Y4959350D01*
X1185926Y5031994D02*
G01*
X1222247Y5031994D01*
X2705100Y1575815D02*
G01*
X2705100Y1466850D01*
X2705100Y1575815D02*
G01*
X2741422Y1575815D01*
X2757170Y1570736D01*
X2767329Y1560321D01*
X2772663Y1549907D01*
X2777743Y1534160D01*
X2777743Y1508252D01*
X2772663Y1492757D01*
X2767329Y1482344D01*
X2757170Y1471929D01*
X2741422Y1466850D01*
X2705100Y1466850D01*
X2822447Y1575815D02*
G01*
X2879597Y1575815D01*
X2848609Y1534160D01*
X2864104Y1534160D01*
X2874518Y1529079D01*
X2879597Y1524000D01*
X2884931Y1508252D01*
X2884931Y1497837D01*
X2879597Y1482344D01*
X2869184Y1471929D01*
X2853690Y1466850D01*
X2838195Y1466850D01*
X2822447Y1471929D01*
X2817368Y1477010D01*
X2812034Y1487423D01*
X2705100Y2172715D02*
G01*
X2705100Y2063750D01*
X2705100Y2172715D02*
G01*
X2741422Y2172715D01*
X2757170Y2167636D01*
X2767329Y2157221D01*
X2772663Y2146807D01*
X2777743Y2131060D01*
X2777743Y2105152D01*
X2772663Y2089657D01*
X2767329Y2079244D01*
X2757170Y2068829D01*
X2741422Y2063750D01*
X2705100Y2063750D01*
X2817368Y2146807D02*
G01*
X2817368Y2151887D01*
X2822447Y2162302D01*
X2827781Y2167636D01*
X2838195Y2172715D01*
X2858770Y2172715D01*
X2869184Y2167636D01*
X2874518Y2162302D01*
X2879597Y2151887D01*
X2879597Y2141473D01*
X2874518Y2131060D01*
X2864104Y2115565D01*
X2812034Y2063750D01*
X2884931Y2063750D01*
X2705100Y2782315D02*
G01*
X2705100Y2673350D01*
X2705100Y2782315D02*
G01*
X2741422Y2782315D01*
X2757170Y2777236D01*
X2767329Y2766821D01*
X2772663Y2756407D01*
X2777743Y2740660D01*
X2777743Y2714752D01*
X2772663Y2699257D01*
X2767329Y2688844D01*
X2757170Y2678429D01*
X2741422Y2673350D01*
X2705100Y2673350D01*
X2812034Y2761487D02*
G01*
X2822447Y2766821D01*
X2838195Y2782315D01*
X2838195Y2673350D01*
D11*
X2235200Y306578D02*
G01*
X2235200Y112776D01*
X2235200Y306578D02*
G01*
X2364486Y112776D01*
X2364486Y306578D02*
G01*
X2364486Y112776D01*
X1790700Y306578D02*
G01*
X1790700Y112776D01*
X1790700Y112776D02*
G01*
X1901444Y112776D01*
X1168400Y319278D02*
G01*
X1168400Y125476D01*
X1168400Y319278D02*
G01*
X1251457Y319278D01*
X1279144Y310134D01*
X1288542Y300989D01*
X1297686Y282447D01*
X1297686Y254762D01*
X1288542Y236220D01*
X1279144Y227076D01*
X1251457Y217678D01*
X1168400Y217678D01*
X1358645Y319278D02*
G01*
X1358645Y125476D01*
X1358645Y319278D02*
G01*
X1478787Y319278D01*
X1358645Y227076D02*
G01*
X1432560Y227076D01*
X1358645Y125476D02*
G01*
X1478787Y125476D01*
X7390129Y3181350D02*
G01*
X7380986Y3199892D01*
X7362443Y3218434D01*
X7344156Y3227578D01*
X7307072Y3227578D01*
X7288529Y3218434D01*
X7270241Y3199892D01*
X7260843Y3181350D01*
X7251700Y3153663D01*
X7251700Y3107689D01*
X7260843Y3079750D01*
X7270241Y3061462D01*
X7288529Y3042920D01*
X7307072Y3033776D01*
X7344156Y3033776D01*
X7362443Y3042920D01*
X7380986Y3061462D01*
X7390129Y3079750D01*
X7390129Y3107689D01*
X7344156Y3107689D02*
G01*
X7390129Y3107689D01*
X7451090Y3163062D02*
G01*
X7451090Y3033776D01*
X7451090Y3125978D02*
G01*
X7479029Y3153663D01*
X7497318Y3163062D01*
X7525004Y3163062D01*
X7543545Y3153663D01*
X7552690Y3125978D01*
X7552690Y3033776D01*
X7724647Y3227578D02*
G01*
X7724647Y3033776D01*
X7724647Y3135376D02*
G01*
X7706106Y3153663D01*
X7687563Y3163062D01*
X7659877Y3163062D01*
X7641590Y3153663D01*
X7623047Y3135376D01*
X7613650Y3107689D01*
X7613650Y3089147D01*
X7623047Y3061462D01*
X7641590Y3042920D01*
X7659877Y3033776D01*
X7687563Y3033776D01*
X7706106Y3042920D01*
X7724647Y3061462D01*
X5646927Y305562D02*
G01*
X5628386Y296163D01*
X5609843Y277876D01*
X5600700Y250189D01*
X5600700Y231647D01*
X5609843Y203962D01*
X5628386Y185420D01*
X5646927Y176276D01*
X5674613Y176276D01*
X5693156Y185420D01*
X5711443Y203962D01*
X5720841Y231647D01*
X5720841Y250189D01*
X5711443Y277876D01*
X5693156Y296163D01*
X5674613Y305562D01*
X5646927Y305562D01*
X5781802Y370078D02*
G01*
X5781802Y176276D01*
X5874004Y305562D02*
G01*
X5781802Y213105D01*
X5818631Y250189D02*
G01*
X5883402Y176276D01*
X4381500Y344678D02*
G01*
X4455413Y150876D01*
X4529327Y344678D02*
G01*
X4455413Y150876D01*
X4599431Y298450D02*
G01*
X4599431Y307847D01*
X4608829Y326389D01*
X4617974Y335534D01*
X4636515Y344678D01*
X4673345Y344678D01*
X4691888Y335534D01*
X4701031Y326389D01*
X4710429Y307847D01*
X4710429Y289305D01*
X4701031Y270763D01*
X4682490Y243078D01*
X4590288Y150876D01*
X4719574Y150876D01*
X4789677Y196850D02*
G01*
X4780534Y187705D01*
X4789677Y178562D01*
X4799075Y187705D01*
X4789677Y196850D01*
X4860036Y307847D02*
G01*
X4878324Y316992D01*
X4906009Y344678D01*
X4906009Y150876D01*
X7616443Y636778D02*
G01*
X7524241Y636778D01*
X7514843Y553720D01*
X7524241Y562863D01*
X7551927Y572262D01*
X7579613Y572262D01*
X7607300Y562863D01*
X7625841Y544576D01*
X7634986Y516889D01*
X7634986Y498347D01*
X7625841Y470662D01*
X7607300Y452120D01*
X7579613Y442976D01*
X7551927Y442976D01*
X7524241Y452120D01*
X7514843Y461263D01*
X7505700Y479805D01*
X7695945Y636778D02*
G01*
X7769859Y442976D01*
X7843774Y636778D02*
G01*
X7769859Y442976D01*
X1629410Y3123437D02*
G01*
X1583944Y3123437D01*
X1579371Y3082544D01*
X1583944Y3087115D01*
X1597405Y3091687D01*
X1611121Y3091687D01*
X1624837Y3087115D01*
X1633981Y3077971D01*
X1638554Y3064510D01*
X1638554Y3055365D01*
X1633981Y3041650D01*
X1624837Y3032505D01*
X1611121Y3027934D01*
X1597405Y3027934D01*
X1583944Y3032505D01*
X1579371Y3037078D01*
X1574800Y3046221D01*
X1668526Y3123437D02*
G01*
X1704847Y3027934D01*
X1741170Y3123437D02*
G01*
X1704847Y3027934D01*
X1211071Y3100831D02*
G01*
X1206754Y3109976D01*
X1197610Y3118865D01*
X1188465Y3123437D01*
X1170178Y3123437D01*
X1161287Y3118865D01*
X1152144Y3109976D01*
X1147571Y3100831D01*
X1143000Y3087115D01*
X1143000Y3064510D01*
X1147571Y3050794D01*
X1152144Y3041650D01*
X1161287Y3032505D01*
X1170178Y3027934D01*
X1188465Y3027934D01*
X1197610Y3032505D01*
X1206754Y3041650D01*
X1211071Y3050794D01*
X1211071Y3064510D01*
X1188465Y3064510D02*
G01*
X1211071Y3064510D01*
X1241297Y3091687D02*
G01*
X1241297Y3027934D01*
X1241297Y3073400D02*
G01*
X1254760Y3087115D01*
X1263904Y3091687D01*
X1277620Y3091687D01*
X1286510Y3087115D01*
X1291081Y3073400D01*
X1291081Y3027934D01*
X1375663Y3123437D02*
G01*
X1375663Y3027934D01*
X1375663Y3077971D02*
G01*
X1366520Y3087115D01*
X1357629Y3091687D01*
X1343913Y3091687D01*
X1334770Y3087115D01*
X1325626Y3077971D01*
X1321307Y3064510D01*
X1321307Y3055365D01*
X1325626Y3041650D01*
X1334770Y3032505D01*
X1343913Y3027934D01*
X1357629Y3027934D01*
X1366520Y3032505D01*
X1375663Y3041650D01*
D10*
X4012184Y774700D02*
G01*
X4090161Y774700D01*
X4105656Y779779D01*
X4116070Y790194D01*
X4121150Y805942D01*
X4121150Y816355D01*
X4116070Y831850D01*
X4105656Y842263D01*
X4090161Y847344D01*
X4012184Y847344D01*
X4038091Y886968D02*
G01*
X4033011Y886968D01*
X4022597Y892047D01*
X4017263Y897381D01*
X4012184Y907795D01*
X4012184Y928370D01*
X4017263Y938784D01*
X4022597Y944118D01*
X4033011Y949197D01*
X4043425Y949197D01*
X4053840Y944118D01*
X4069334Y933704D01*
X4121150Y881634D01*
X4121150Y954531D01*
D11*
X6527800Y240537D02*
G01*
X6527800Y145034D01*
X6527800Y145034D02*
G01*
X6582409Y145034D01*
X6621525Y254254D02*
G01*
X6621525Y227076D01*
X7416800Y240537D02*
G01*
X7416800Y145034D01*
X7416800Y240537D02*
G01*
X7480554Y145034D01*
X7480554Y240537D02*
G01*
X7480554Y145034D01*
X7519415Y254254D02*
G01*
X7519415Y227076D01*
X762000Y3091687D02*
G01*
X762000Y3027934D01*
X762000Y3064510D02*
G01*
X766571Y3077971D01*
X775715Y3087115D01*
X784605Y3091687D01*
X798321Y3091687D01*
X828294Y3064510D02*
G01*
X882904Y3064510D01*
X882904Y3073400D01*
X878331Y3082544D01*
X873760Y3087115D01*
X864615Y3091687D01*
X851154Y3091687D01*
X842010Y3087115D01*
X832865Y3077971D01*
X828294Y3064510D01*
X828294Y3055365D01*
X832865Y3041650D01*
X842010Y3032505D01*
X851154Y3027934D01*
X864615Y3027934D01*
X873760Y3032505D01*
X882904Y3041650D01*
X912876Y3091687D02*
G01*
X940307Y3027934D01*
X967486Y3091687D02*
G01*
X940307Y3027934D01*
X416305Y3091687D02*
G01*
X407415Y3087115D01*
X398271Y3077971D01*
X393700Y3064510D01*
X393700Y3055365D01*
X398271Y3041650D01*
X407415Y3032505D01*
X416305Y3027934D01*
X430021Y3027934D01*
X439165Y3032505D01*
X448310Y3041650D01*
X452881Y3055365D01*
X452881Y3064510D01*
X448310Y3077971D01*
X439165Y3087115D01*
X430021Y3091687D01*
X416305Y3091687D01*
X482854Y3091687D02*
G01*
X482854Y3027934D01*
X482854Y3073400D02*
G01*
X496315Y3087115D01*
X505460Y3091687D01*
X519176Y3091687D01*
X528320Y3087115D01*
X532892Y3073400D01*
X532892Y3027934D01*
D10*
X3224784Y4356100D02*
G01*
X3302761Y4356100D01*
X3318256Y4361179D01*
X3328670Y4371594D01*
X3333750Y4387342D01*
X3333750Y4397755D01*
X3328670Y4413250D01*
X3318256Y4423663D01*
X3302761Y4428744D01*
X3224784Y4428744D01*
X3245611Y4463034D02*
G01*
X3240277Y4473447D01*
X3224784Y4489195D01*
X3333750Y4489195D01*
X1104900Y1601215D02*
G01*
X1104900Y1492250D01*
X1104900Y1601215D02*
G01*
X1151636Y1601215D01*
X1167129Y1596136D01*
X1172463Y1590802D01*
X1177544Y1580387D01*
X1177544Y1569973D01*
X1172463Y1559560D01*
X1167129Y1554479D01*
X1151636Y1549400D01*
X1104900Y1549400D01*
X1141221Y1549400D02*
G01*
X1177544Y1492250D01*
X1211834Y1580387D02*
G01*
X1222247Y1585721D01*
X1237995Y1601215D01*
X1237995Y1492250D01*
X1277365Y1575307D02*
G01*
X1277365Y1580387D01*
X1282700Y1590802D01*
X1287779Y1596136D01*
X1298194Y1601215D01*
X1319021Y1601215D01*
X1329436Y1596136D01*
X1334515Y1590802D01*
X1339850Y1580387D01*
X1339850Y1569973D01*
X1334515Y1559560D01*
X1324102Y1544065D01*
X1272286Y1492250D01*
X1344929Y1492250D01*
X1663700Y1601215D02*
G01*
X1663700Y1492250D01*
X1663700Y1601215D02*
G01*
X1710436Y1601215D01*
X1725929Y1596136D01*
X1731263Y1590802D01*
X1736344Y1580387D01*
X1736344Y1569973D01*
X1731263Y1559560D01*
X1725929Y1554479D01*
X1710436Y1549400D01*
X1663700Y1549400D01*
X1700021Y1549400D02*
G01*
X1736344Y1492250D01*
X1770634Y1580387D02*
G01*
X1781047Y1585721D01*
X1796795Y1601215D01*
X1796795Y1492250D01*
X1841500Y1601215D02*
G01*
X1898650Y1601215D01*
X1867407Y1559560D01*
X1882902Y1559560D01*
X1893315Y1554479D01*
X1898650Y1549400D01*
X1903729Y1533652D01*
X1903729Y1523237D01*
X1898650Y1507744D01*
X1888236Y1497329D01*
X1872487Y1492250D01*
X1856994Y1492250D01*
X1841500Y1497329D01*
X1836165Y1502410D01*
X1831086Y1512823D01*
X2197100Y1601215D02*
G01*
X2197100Y1492250D01*
X2197100Y1601215D02*
G01*
X2243836Y1601215D01*
X2259329Y1596136D01*
X2264663Y1590802D01*
X2269743Y1580387D01*
X2269743Y1569973D01*
X2264663Y1559560D01*
X2259329Y1554479D01*
X2243836Y1549400D01*
X2197100Y1549400D01*
X2233422Y1549400D02*
G01*
X2269743Y1492250D01*
X2304034Y1580387D02*
G01*
X2314447Y1585721D01*
X2330195Y1601215D01*
X2330195Y1492250D01*
X2416302Y1601215D02*
G01*
X2364486Y1528571D01*
X2442209Y1528571D01*
X2416302Y1601215D02*
G01*
X2416302Y1492250D01*
X3289300Y1601215D02*
G01*
X3289300Y1492250D01*
X3289300Y1601215D02*
G01*
X3336036Y1601215D01*
X3351529Y1596136D01*
X3356863Y1590802D01*
X3361943Y1580387D01*
X3361943Y1569973D01*
X3356863Y1559560D01*
X3351529Y1554479D01*
X3336036Y1549400D01*
X3289300Y1549400D01*
X3325622Y1549400D02*
G01*
X3361943Y1492250D01*
X3396234Y1580387D02*
G01*
X3406647Y1585721D01*
X3422395Y1601215D01*
X3422395Y1492250D01*
X3518915Y1601215D02*
G01*
X3467100Y1601215D01*
X3461765Y1554479D01*
X3467100Y1559560D01*
X3482593Y1564894D01*
X3498088Y1564894D01*
X3513836Y1559560D01*
X3524250Y1549400D01*
X3529329Y1533652D01*
X3529329Y1523237D01*
X3524250Y1507744D01*
X3513836Y1497329D01*
X3498088Y1492250D01*
X3482593Y1492250D01*
X3467100Y1497329D01*
X3461765Y1502410D01*
X3456686Y1512823D01*
X3926077Y1575307D02*
G01*
X3920743Y1585721D01*
X3910329Y1596136D01*
X3900170Y1601215D01*
X3879341Y1601215D01*
X3868927Y1596136D01*
X3858513Y1585721D01*
X3853179Y1575307D01*
X3848100Y1559560D01*
X3848100Y1533652D01*
X3853179Y1518157D01*
X3858513Y1507744D01*
X3868927Y1497329D01*
X3879341Y1492250D01*
X3900170Y1492250D01*
X3910329Y1497329D01*
X3920743Y1507744D01*
X3926077Y1518157D01*
X3970781Y1601215D02*
G01*
X4027931Y1601215D01*
X3996690Y1559560D01*
X4012184Y1559560D01*
X4022597Y1554479D01*
X4027931Y1549400D01*
X4033011Y1533652D01*
X4033011Y1523237D01*
X4027931Y1507744D01*
X4017518Y1497329D01*
X4001770Y1492250D01*
X3986275Y1492250D01*
X3970781Y1497329D01*
X3965447Y1502410D01*
X3960368Y1512823D01*
X546100Y1601215D02*
G01*
X546100Y1492250D01*
X546100Y1601215D02*
G01*
X592836Y1601215D01*
X608329Y1596136D01*
X613663Y1590802D01*
X618744Y1580387D01*
X618744Y1569973D01*
X613663Y1559560D01*
X608329Y1554479D01*
X592836Y1549400D01*
X546100Y1549400D01*
X582421Y1549400D02*
G01*
X618744Y1492250D01*
X653034Y1580387D02*
G01*
X663447Y1585721D01*
X679195Y1601215D01*
X679195Y1492250D01*
X713486Y1580387D02*
G01*
X723900Y1585721D01*
X739394Y1601215D01*
X739394Y1492250D01*
X1104900Y2198115D02*
G01*
X1104900Y2089150D01*
X1104900Y2198115D02*
G01*
X1151636Y2198115D01*
X1167129Y2193036D01*
X1172463Y2187702D01*
X1177544Y2177287D01*
X1177544Y2166873D01*
X1172463Y2156460D01*
X1167129Y2151379D01*
X1151636Y2146300D01*
X1104900Y2146300D01*
X1141221Y2146300D02*
G01*
X1177544Y2089150D01*
X1284731Y2198115D02*
G01*
X1232662Y2089150D01*
X1211834Y2198115D02*
G01*
X1284731Y2198115D01*
X1663700Y2198115D02*
G01*
X1663700Y2089150D01*
X1663700Y2198115D02*
G01*
X1710436Y2198115D01*
X1725929Y2193036D01*
X1731263Y2187702D01*
X1736344Y2177287D01*
X1736344Y2166873D01*
X1731263Y2156460D01*
X1725929Y2151379D01*
X1710436Y2146300D01*
X1663700Y2146300D01*
X1700021Y2146300D02*
G01*
X1736344Y2089150D01*
X1796795Y2198115D02*
G01*
X1781047Y2193036D01*
X1775968Y2182621D01*
X1775968Y2172207D01*
X1781047Y2161794D01*
X1791462Y2156460D01*
X1812289Y2151379D01*
X1827784Y2146300D01*
X1838197Y2135886D01*
X1843531Y2125471D01*
X1843531Y2109723D01*
X1838197Y2099310D01*
X1833118Y2094229D01*
X1817370Y2089150D01*
X1796795Y2089150D01*
X1781047Y2094229D01*
X1775968Y2099310D01*
X1770634Y2109723D01*
X1770634Y2125471D01*
X1775968Y2135886D01*
X1786381Y2146300D01*
X1801876Y2151379D01*
X1822704Y2156460D01*
X1833118Y2161794D01*
X1838197Y2172207D01*
X1838197Y2182621D01*
X1833118Y2193036D01*
X1817370Y2198115D01*
X1796795Y2198115D01*
X2197100Y2198115D02*
G01*
X2197100Y2089150D01*
X2197100Y2198115D02*
G01*
X2243836Y2198115D01*
X2259329Y2193036D01*
X2264663Y2187702D01*
X2269743Y2177287D01*
X2269743Y2166873D01*
X2264663Y2156460D01*
X2259329Y2151379D01*
X2243836Y2146300D01*
X2197100Y2146300D01*
X2233422Y2146300D02*
G01*
X2269743Y2089150D01*
X2371597Y2161794D02*
G01*
X2366518Y2146300D01*
X2356104Y2135886D01*
X2340609Y2130552D01*
X2335275Y2130552D01*
X2319781Y2135886D01*
X2309368Y2146300D01*
X2304034Y2161794D01*
X2304034Y2166873D01*
X2309368Y2182621D01*
X2319781Y2193036D01*
X2335275Y2198115D01*
X2340609Y2198115D01*
X2356104Y2193036D01*
X2366518Y2182621D01*
X2371597Y2161794D01*
X2371597Y2135886D01*
X2366518Y2109723D01*
X2356104Y2094229D01*
X2340609Y2089150D01*
X2330195Y2089150D01*
X2314447Y2094229D01*
X2309368Y2104644D01*
X3289300Y2198115D02*
G01*
X3289300Y2089150D01*
X3289300Y2198115D02*
G01*
X3336036Y2198115D01*
X3351529Y2193036D01*
X3356863Y2187702D01*
X3361943Y2177287D01*
X3361943Y2166873D01*
X3356863Y2156460D01*
X3351529Y2151379D01*
X3336036Y2146300D01*
X3289300Y2146300D01*
X3325622Y2146300D02*
G01*
X3361943Y2089150D01*
X3396234Y2177287D02*
G01*
X3406647Y2182621D01*
X3422395Y2198115D01*
X3422395Y2089150D01*
X3487674Y2198115D02*
G01*
X3472179Y2193036D01*
X3461765Y2177287D01*
X3456686Y2151379D01*
X3456686Y2135886D01*
X3461765Y2109723D01*
X3472179Y2094229D01*
X3487674Y2089150D01*
X3498088Y2089150D01*
X3513836Y2094229D01*
X3524250Y2109723D01*
X3529329Y2135886D01*
X3529329Y2151379D01*
X3524250Y2177287D01*
X3513836Y2193036D01*
X3498088Y2198115D01*
X3487674Y2198115D01*
X3926077Y2172207D02*
G01*
X3920743Y2182621D01*
X3910329Y2193036D01*
X3900170Y2198115D01*
X3879341Y2198115D01*
X3868927Y2193036D01*
X3858513Y2182621D01*
X3853179Y2172207D01*
X3848100Y2156460D01*
X3848100Y2130552D01*
X3853179Y2115057D01*
X3858513Y2104644D01*
X3868927Y2094229D01*
X3879341Y2089150D01*
X3900170Y2089150D01*
X3910329Y2094229D01*
X3920743Y2104644D01*
X3926077Y2115057D01*
X3965447Y2172207D02*
G01*
X3965447Y2177287D01*
X3970781Y2187702D01*
X3975861Y2193036D01*
X3986275Y2198115D01*
X4007104Y2198115D01*
X4017518Y2193036D01*
X4022597Y2187702D01*
X4027931Y2177287D01*
X4027931Y2166873D01*
X4022597Y2156460D01*
X4012184Y2140965D01*
X3960368Y2089150D01*
X4033011Y2089150D01*
X546100Y2198115D02*
G01*
X546100Y2089150D01*
X546100Y2198115D02*
G01*
X592836Y2198115D01*
X608329Y2193036D01*
X613663Y2187702D01*
X618744Y2177287D01*
X618744Y2166873D01*
X613663Y2156460D01*
X608329Y2151379D01*
X592836Y2146300D01*
X546100Y2146300D01*
X582421Y2146300D02*
G01*
X618744Y2089150D01*
X715518Y2182621D02*
G01*
X710184Y2193036D01*
X694689Y2198115D01*
X684276Y2198115D01*
X668781Y2193036D01*
X658368Y2177287D01*
X653034Y2151379D01*
X653034Y2125471D01*
X658368Y2104644D01*
X668781Y2094229D01*
X684276Y2089150D01*
X689610Y2089150D01*
X705104Y2094229D01*
X715518Y2104644D01*
X720597Y2120137D01*
X720597Y2125471D01*
X715518Y2140965D01*
X705104Y2151379D01*
X689610Y2156460D01*
X684276Y2156460D01*
X668781Y2151379D01*
X658368Y2140965D01*
X653034Y2125471D01*
X546100Y2807715D02*
G01*
X546100Y2698750D01*
X546100Y2807715D02*
G01*
X592836Y2807715D01*
X608329Y2802636D01*
X613663Y2797302D01*
X618744Y2786887D01*
X618744Y2776473D01*
X613663Y2766060D01*
X608329Y2760979D01*
X592836Y2755900D01*
X546100Y2755900D01*
X582421Y2755900D02*
G01*
X618744Y2698750D01*
X653034Y2786887D02*
G01*
X663447Y2792221D01*
X679195Y2807715D01*
X679195Y2698750D01*
X3926077Y2781807D02*
G01*
X3920743Y2792221D01*
X3910329Y2802636D01*
X3900170Y2807715D01*
X3879341Y2807715D01*
X3868927Y2802636D01*
X3858513Y2792221D01*
X3853179Y2781807D01*
X3848100Y2766060D01*
X3848100Y2740152D01*
X3853179Y2724657D01*
X3858513Y2714244D01*
X3868927Y2703829D01*
X3879341Y2698750D01*
X3900170Y2698750D01*
X3910329Y2703829D01*
X3920743Y2714244D01*
X3926077Y2724657D01*
X3960368Y2786887D02*
G01*
X3970781Y2792221D01*
X3986275Y2807715D01*
X3986275Y2698750D01*
X3289300Y2807715D02*
G01*
X3289300Y2698750D01*
X3289300Y2807715D02*
G01*
X3336036Y2807715D01*
X3351529Y2802636D01*
X3356863Y2797302D01*
X3361943Y2786887D01*
X3361943Y2776473D01*
X3356863Y2766060D01*
X3351529Y2760979D01*
X3336036Y2755900D01*
X3289300Y2755900D01*
X3325622Y2755900D02*
G01*
X3361943Y2698750D01*
X3458718Y2807715D02*
G01*
X3406647Y2807715D01*
X3401568Y2760979D01*
X3406647Y2766060D01*
X3422395Y2771394D01*
X3437890Y2771394D01*
X3453384Y2766060D01*
X3463797Y2755900D01*
X3469131Y2740152D01*
X3469131Y2729737D01*
X3463797Y2714244D01*
X3453384Y2703829D01*
X3437890Y2698750D01*
X3422395Y2698750D01*
X3406647Y2703829D01*
X3401568Y2708910D01*
X3396234Y2719323D01*
X2197100Y2807715D02*
G01*
X2197100Y2698750D01*
X2197100Y2807715D02*
G01*
X2243836Y2807715D01*
X2259329Y2802636D01*
X2264663Y2797302D01*
X2269743Y2786887D01*
X2269743Y2776473D01*
X2264663Y2766060D01*
X2259329Y2760979D01*
X2243836Y2755900D01*
X2197100Y2755900D01*
X2233422Y2755900D02*
G01*
X2269743Y2698750D01*
X2356104Y2807715D02*
G01*
X2304034Y2735071D01*
X2382011Y2735071D01*
X2356104Y2807715D02*
G01*
X2356104Y2698750D01*
X1663700Y2807715D02*
G01*
X1663700Y2698750D01*
X1663700Y2807715D02*
G01*
X1710436Y2807715D01*
X1725929Y2802636D01*
X1731263Y2797302D01*
X1736344Y2786887D01*
X1736344Y2776473D01*
X1731263Y2766060D01*
X1725929Y2760979D01*
X1710436Y2755900D01*
X1663700Y2755900D01*
X1700021Y2755900D02*
G01*
X1736344Y2698750D01*
X1781047Y2807715D02*
G01*
X1838197Y2807715D01*
X1807210Y2766060D01*
X1822704Y2766060D01*
X1833118Y2760979D01*
X1838197Y2755900D01*
X1843531Y2740152D01*
X1843531Y2729737D01*
X1838197Y2714244D01*
X1827784Y2703829D01*
X1812289Y2698750D01*
X1796795Y2698750D01*
X1781047Y2703829D01*
X1775968Y2708910D01*
X1770634Y2719323D01*
X1104900Y2807715D02*
G01*
X1104900Y2698750D01*
X1104900Y2807715D02*
G01*
X1151636Y2807715D01*
X1167129Y2802636D01*
X1172463Y2797302D01*
X1177544Y2786887D01*
X1177544Y2776473D01*
X1172463Y2766060D01*
X1167129Y2760979D01*
X1151636Y2755900D01*
X1104900Y2755900D01*
X1141221Y2755900D02*
G01*
X1177544Y2698750D01*
X1217168Y2781807D02*
G01*
X1217168Y2786887D01*
X1222247Y2797302D01*
X1227581Y2802636D01*
X1237995Y2807715D01*
X1258570Y2807715D01*
X1268984Y2802636D01*
X1274318Y2797302D01*
X1279397Y2786887D01*
X1279397Y2776473D01*
X1274318Y2766060D01*
X1263904Y2750565D01*
X1211834Y2698750D01*
X1284731Y2698750D01*
X1981200Y5093715D02*
G01*
X1981200Y4984750D01*
X1981200Y5093715D02*
G01*
X2027936Y5093715D01*
X2043429Y5088636D01*
X2048763Y5083302D01*
X2053843Y5072887D01*
X2053843Y5062473D01*
X2048763Y5052060D01*
X2043429Y5046979D01*
X2027936Y5041900D01*
X1981200Y5041900D01*
X2017522Y5041900D02*
G01*
X2053843Y4984750D01*
X2093468Y5067807D02*
G01*
X2093468Y5072887D01*
X2098547Y5083302D01*
X2103881Y5088636D01*
X2114295Y5093715D01*
X2134870Y5093715D01*
X2145284Y5088636D01*
X2150618Y5083302D01*
X2155697Y5072887D01*
X2155697Y5062473D01*
X2150618Y5052060D01*
X2140204Y5036565D01*
X2088134Y4984750D01*
X2161031Y4984750D01*
X2200402Y5067807D02*
G01*
X2200402Y5072887D01*
X2205736Y5083302D01*
X2210815Y5088636D01*
X2221229Y5093715D01*
X2242058Y5093715D01*
X2252472Y5088636D01*
X2257552Y5083302D01*
X2262886Y5072887D01*
X2262886Y5062473D01*
X2257552Y5052060D01*
X2247138Y5036565D01*
X2195322Y4984750D01*
X2267965Y4984750D01*
X1993900Y3920744D02*
G01*
X1993900Y3811778D01*
X1993900Y3920744D02*
G01*
X2040636Y3920744D01*
X2056129Y3915663D01*
X2061463Y3910329D01*
X2066543Y3899915D01*
X2066543Y3889755D01*
X2061463Y3879342D01*
X2056129Y3874007D01*
X2040636Y3868928D01*
X1993900Y3868928D01*
X2030222Y3868928D02*
G01*
X2066543Y3811778D01*
X2106168Y3894836D02*
G01*
X2106168Y3899915D01*
X2111247Y3910329D01*
X2116581Y3915663D01*
X2126995Y3920744D01*
X2147570Y3920744D01*
X2157984Y3915663D01*
X2163318Y3910329D01*
X2168397Y3899915D01*
X2168397Y3889755D01*
X2163318Y3879342D01*
X2152904Y3863594D01*
X2100834Y3811778D01*
X2173731Y3811778D01*
X2239009Y3920744D02*
G01*
X2223515Y3915663D01*
X2213102Y3899915D01*
X2208022Y3874007D01*
X2208022Y3858513D01*
X2213102Y3832605D01*
X2223515Y3816857D01*
X2239009Y3811778D01*
X2249424Y3811778D01*
X2265172Y3816857D01*
X2275586Y3832605D01*
X2280665Y3858513D01*
X2280665Y3874007D01*
X2275586Y3899915D01*
X2265172Y3915663D01*
X2249424Y3920744D01*
X2239009Y3920744D01*
X1981200Y4492244D02*
G01*
X1981200Y4383278D01*
X1981200Y4492244D02*
G01*
X2027936Y4492244D01*
X2043429Y4487163D01*
X2048763Y4481829D01*
X2053843Y4471415D01*
X2053843Y4461255D01*
X2048763Y4450842D01*
X2043429Y4445507D01*
X2027936Y4440428D01*
X1981200Y4440428D01*
X2017522Y4440428D02*
G01*
X2053843Y4383278D01*
X2093468Y4466336D02*
G01*
X2093468Y4471415D01*
X2098547Y4481829D01*
X2103881Y4487163D01*
X2114295Y4492244D01*
X2134870Y4492244D01*
X2145284Y4487163D01*
X2150618Y4481829D01*
X2155697Y4471415D01*
X2155697Y4461255D01*
X2150618Y4450842D01*
X2140204Y4435094D01*
X2088134Y4383278D01*
X2161031Y4383278D01*
X2195322Y4471415D02*
G01*
X2205736Y4476750D01*
X2221229Y4492244D01*
X2221229Y4383278D01*
D12*
X2895600Y2933700D02*
G01*
X2667000Y2933700D01*
X2857500Y2933700D02*
G01*
X2705100Y2870200D01*
X2857500Y2933700D02*
G01*
X2705100Y3001906D01*
X2857500Y2997200D02*
G01*
X2857500Y2870200D01*
X2705100Y2997200D02*
G01*
X2705100Y2870200D01*
D13*
X5245100Y381000D02*
G01*
X5499100Y381000D01*
X5499100Y127000D01*
X5245100Y127000D01*
X5245100Y381000D01*
X4203700Y736600D02*
G01*
X7708900Y736600D01*
X7708900Y2933700D01*
X4203700Y2933700D01*
X4203700Y736600D01*
X3389884Y4654042D02*
G01*
X3389884Y4724400D01*
X3962400Y4724400D01*
X3962400Y4051300D01*
X3389884Y4051300D01*
X3389884Y4127500D01*
X3389909Y3481501D02*
G01*
X3389909Y5281498D01*
X7709915Y5281498D01*
X7709915Y3481501D01*
X3389909Y3481501D01*
D10*
X1200020Y1225590D02*
G01*
X1336012Y1225590D01*
X1336012Y1441409D01*
X1200020Y1441409D01*
X1009779Y1225590D02*
G01*
X873787Y1225590D01*
X873787Y1441409D01*
X1009779Y1441409D01*
X1758820Y1225590D02*
G01*
X1894812Y1225590D01*
X1894812Y1441409D01*
X1758820Y1441409D01*
X1568579Y1225590D02*
G01*
X1432587Y1225590D01*
X1432587Y1441409D01*
X1568579Y1441409D01*
X2292220Y1225590D02*
G01*
X2428212Y1225590D01*
X2428212Y1441409D01*
X2292220Y1441409D01*
X2101979Y1225590D02*
G01*
X1965987Y1225590D01*
X1965987Y1441409D01*
X2101979Y1441409D01*
X3384420Y1225590D02*
G01*
X3520412Y1225590D01*
X3520412Y1441409D01*
X3384420Y1441409D01*
X3194179Y1225590D02*
G01*
X3058187Y1225590D01*
X3058187Y1441409D01*
X3194179Y1441409D01*
X3943220Y1225590D02*
G01*
X4079212Y1225590D01*
X4079212Y1441409D01*
X3943220Y1441409D01*
X3752979Y1225590D02*
G01*
X3616987Y1225590D01*
X3616987Y1441409D01*
X3752979Y1441409D01*
X641220Y1225590D02*
G01*
X777212Y1225590D01*
X777212Y1441409D01*
X641220Y1441409D01*
X450979Y1225590D02*
G01*
X314987Y1225590D01*
X314987Y1441409D01*
X450979Y1441409D01*
X1200020Y1822490D02*
G01*
X1336012Y1822490D01*
X1336012Y2038309D01*
X1200020Y2038309D01*
X1009779Y1822490D02*
G01*
X873787Y1822490D01*
X873787Y2038309D01*
X1009779Y2038309D01*
X1758820Y1822490D02*
G01*
X1894812Y1822490D01*
X1894812Y2038309D01*
X1758820Y2038309D01*
X1568579Y1822490D02*
G01*
X1432587Y1822490D01*
X1432587Y2038309D01*
X1568579Y2038309D01*
X2292220Y1822490D02*
G01*
X2428212Y1822490D01*
X2428212Y2038309D01*
X2292220Y2038309D01*
X2101979Y1822490D02*
G01*
X1965987Y1822490D01*
X1965987Y2038309D01*
X2101979Y2038309D01*
X3384420Y1822490D02*
G01*
X3520412Y1822490D01*
X3520412Y2038309D01*
X3384420Y2038309D01*
X3194179Y1822490D02*
G01*
X3058187Y1822490D01*
X3058187Y2038309D01*
X3194179Y2038309D01*
X3943220Y1822490D02*
G01*
X4079212Y1822490D01*
X4079212Y2038309D01*
X3943220Y2038309D01*
X3752979Y1822490D02*
G01*
X3616987Y1822490D01*
X3616987Y2038309D01*
X3752979Y2038309D01*
X641220Y1822490D02*
G01*
X777212Y1822490D01*
X777212Y2038309D01*
X641220Y2038309D01*
X450979Y1822490D02*
G01*
X314987Y1822490D01*
X314987Y2038309D01*
X450979Y2038309D01*
X641220Y2432090D02*
G01*
X777212Y2432090D01*
X777212Y2647909D01*
X641220Y2647909D01*
X450979Y2432090D02*
G01*
X314987Y2432090D01*
X314987Y2647909D01*
X450979Y2647909D01*
X3943220Y2432090D02*
G01*
X4079212Y2432090D01*
X4079212Y2647909D01*
X3943220Y2647909D01*
X3752979Y2432090D02*
G01*
X3616987Y2432090D01*
X3616987Y2647909D01*
X3752979Y2647909D01*
X3384420Y2432090D02*
G01*
X3520412Y2432090D01*
X3520412Y2647909D01*
X3384420Y2647909D01*
X3194179Y2432090D02*
G01*
X3058187Y2432090D01*
X3058187Y2647909D01*
X3194179Y2647909D01*
X2292220Y2432090D02*
G01*
X2428212Y2432090D01*
X2428212Y2647909D01*
X2292220Y2647909D01*
X2101979Y2432090D02*
G01*
X1965987Y2432090D01*
X1965987Y2647909D01*
X2101979Y2647909D01*
X1758820Y2432090D02*
G01*
X1894812Y2432090D01*
X1894812Y2647909D01*
X1758820Y2647909D01*
X1568579Y2432090D02*
G01*
X1432587Y2432090D01*
X1432587Y2647909D01*
X1568579Y2647909D01*
X1200020Y2432090D02*
G01*
X1336012Y2432090D01*
X1336012Y2647909D01*
X1200020Y2647909D01*
X1009779Y2432090D02*
G01*
X873787Y2432090D01*
X873787Y2647909D01*
X1009779Y2647909D01*
X2076320Y4718090D02*
G01*
X2212312Y4718090D01*
X2212312Y4933909D01*
X2076320Y4933909D01*
X1886079Y4718090D02*
G01*
X1750087Y4718090D01*
X1750087Y4933909D01*
X1886079Y4933909D01*
X2089020Y3545169D02*
G01*
X2225012Y3545169D01*
X2225012Y3760988D01*
X2089020Y3760988D01*
X1898779Y3545169D02*
G01*
X1762787Y3545169D01*
X1762787Y3760988D01*
X1898779Y3760988D01*
X2076320Y4116669D02*
G01*
X2212312Y4116669D01*
X2212312Y4332488D01*
X2076320Y4332488D01*
X1886079Y4116669D02*
G01*
X1750087Y4116669D01*
X1750087Y4332488D01*
X1886079Y4332488D01*
D13*
G75*
G01
X3695700Y3746500D02*
G03X3695700Y3746500I-63500J0D01*
M02*
