G04 Layer: TopLayer*
G04 EasyEDA v6.5.50, 2025-05-27 18:24:41*
G04 52539cb3a7ae454bb971d49213b625aa,b37a74ae5ac9402f918d5afa9d52dbed,10*
G04 Gerber Generator version 0.2*
G04 Scale: 100 percent, Rotated: No, Reflected: No *
G04 Dimensions in millimeters *
G04 leading zeros omitted , absolute positions ,4 integer and 5 decimal *
%FSLAX45Y45*%
%MOMM*%

%AMMACRO1*21,1,$1,$2,0,0,$3*%
%ADD10C,0.2540*%
%ADD11MACRO1,1.701X1.2075X90.0000*%
%ADD12C,1.5240*%
%ADD13C,2.7000*%
%ADD14C,0.6200*%
%ADD15C,0.0160*%

%LPD*%
D10*
X2565400Y215900D02*
G01*
X4152900Y215900D01*
X4762500Y825500D01*
X4470400Y825500D02*
G01*
X4470400Y1574800D01*
X2019300Y215900D02*
G01*
X2019300Y317500D01*
X2171700Y469900D01*
X4216400Y469900D01*
X4470400Y723900D01*
X4470400Y825500D01*
X4762500Y825500D02*
G01*
X4762500Y2006600D01*
X4686300Y2082800D01*
X4470400Y2082800D01*
X880615Y3259838D02*
G01*
X723900Y3111500D01*
X431800Y3111500D01*
X228600Y3314700D01*
X228600Y5245100D01*
X457200Y5473700D01*
X5219700Y5473700D01*
X5549900Y5143500D01*
X5041900Y5143500D02*
G01*
X5041900Y5016500D01*
X4838700Y4826000D01*
X2129073Y4826000D01*
X5295900Y5143500D02*
G01*
X5295900Y5194300D01*
X5105400Y5384800D01*
X508000Y5384800D01*
X330200Y5207000D01*
X330200Y3441966D01*
X512328Y3259838D01*
X1833326Y4224578D02*
G01*
X1049573Y4224578D01*
X1041400Y4216400D01*
X1846026Y3653078D02*
G01*
X1062273Y3653078D01*
X1054100Y3644900D01*
X1833326Y4826000D02*
G01*
X1049573Y4826000D01*
X1041400Y4817821D01*
X880628Y3259838D02*
G01*
X884943Y3259838D01*
X1079500Y3454400D01*
X1993900Y3454400D01*
X2141773Y3602278D01*
X2141773Y3653078D01*
X2129073Y4224578D02*
G01*
X2129073Y4148378D01*
X1993900Y4013200D01*
X330200Y4013200D01*
X2667000Y2540000D02*
G01*
X2667000Y2628900D01*
X2540000Y2755900D01*
X2120900Y2755900D01*
X2057400Y2692400D01*
X2061964Y2687822D01*
X2061964Y2540000D01*
X2730500Y2374900D02*
G01*
X2527300Y2374900D01*
X2362200Y2540000D01*
X2357673Y2540000D01*
X693973Y2540000D02*
G01*
X957026Y2540000D01*
X1252773Y2540000D02*
G01*
X1515826Y2540000D01*
X1811573Y2540000D02*
G01*
X2049226Y2540000D01*
X2730500Y2374900D02*
G01*
X3272073Y2374900D01*
X3437173Y2540000D01*
X2895600Y2527300D02*
G01*
X2908300Y2540000D01*
X3141426Y2540000D01*
X3437173Y2540000D02*
G01*
X3700226Y2540000D01*
X3141426Y2540000D02*
G01*
X3141426Y2595326D01*
X3276600Y2730500D01*
X3848100Y2730500D01*
X3995973Y2582626D01*
X3995973Y2540000D01*
X2667000Y1930400D02*
G01*
X2667000Y2019300D01*
X2540000Y2146300D01*
X2120900Y2146300D01*
X2057400Y2082800D01*
X2061964Y2078222D01*
X2061964Y1930400D01*
X2730500Y1765300D02*
G01*
X2527300Y1765300D01*
X2362200Y1930400D01*
X2357673Y1930400D01*
X693973Y1930400D02*
G01*
X957026Y1930400D01*
X1252773Y1930400D02*
G01*
X1515826Y1930400D01*
X1811573Y1930400D02*
G01*
X2049226Y1930400D01*
X2730500Y1765300D02*
G01*
X3272073Y1765300D01*
X3437173Y1930400D01*
X2895600Y1917700D02*
G01*
X2908300Y1930400D01*
X3141426Y1930400D01*
X3437173Y1930400D02*
G01*
X3700226Y1930400D01*
X3141426Y1930400D02*
G01*
X3141426Y1985726D01*
X3276600Y2120900D01*
X3848100Y2120900D01*
X3995973Y1973026D01*
X3995973Y1930400D01*
X2667000Y1333500D02*
G01*
X2667000Y1422400D01*
X2540000Y1549400D01*
X2120900Y1549400D01*
X2057400Y1485900D01*
X2061964Y1481322D01*
X2061964Y1333500D01*
X2730500Y1168400D02*
G01*
X2527300Y1168400D01*
X2362200Y1333500D01*
X2357673Y1333500D01*
X693973Y1333500D02*
G01*
X957026Y1333500D01*
X1252773Y1333500D02*
G01*
X1515826Y1333500D01*
X1811573Y1333500D02*
G01*
X2049226Y1333500D01*
X2730500Y1168400D02*
G01*
X3272073Y1168400D01*
X3437173Y1333500D01*
X2895600Y1320800D02*
G01*
X2908300Y1333500D01*
X3141426Y1333500D01*
X3437173Y1333500D02*
G01*
X3700226Y1333500D01*
X3141426Y1333500D02*
G01*
X3141426Y1388826D01*
X3276600Y1524000D01*
X3848100Y1524000D01*
X3995973Y1376126D01*
X3995973Y1333500D01*
X2781300Y1168400D02*
G01*
X2781300Y914400D01*
X2540000Y673100D01*
X2070100Y673100D01*
X1612900Y215900D01*
X609600Y1104900D02*
G01*
X398277Y1316222D01*
X398277Y1333500D01*
X5295900Y3619500D02*
G01*
X5295900Y3048000D01*
X393700Y1727200D02*
G01*
X398277Y1731769D01*
X398277Y1930400D01*
X381000Y2311400D02*
G01*
X398226Y2328621D01*
X398226Y2540000D01*
X4787900Y3619500D02*
G01*
X4787900Y2832100D01*
X5041900Y3619500D02*
G01*
X5041900Y3086100D01*
D11*
G01*
X1252776Y1333500D03*
G01*
X957023Y1333500D03*
G01*
X1811576Y1333500D03*
G01*
X1515823Y1333500D03*
G01*
X2344976Y1333500D03*
G01*
X2049223Y1333500D03*
G01*
X3437176Y1333500D03*
G01*
X3141423Y1333500D03*
G01*
X3995976Y1333500D03*
G01*
X3700223Y1333500D03*
G01*
X693976Y1333500D03*
G01*
X398223Y1333500D03*
G01*
X1252776Y1930400D03*
G01*
X957023Y1930400D03*
G01*
X1811576Y1930400D03*
G01*
X1515823Y1930400D03*
G01*
X2344976Y1930400D03*
G01*
X2049223Y1930400D03*
G01*
X3437176Y1930400D03*
G01*
X3141423Y1930400D03*
G01*
X3995976Y1930400D03*
G01*
X3700223Y1930400D03*
G01*
X693976Y1930400D03*
G01*
X398223Y1930400D03*
G01*
X693976Y2540000D03*
G01*
X398223Y2540000D03*
G01*
X3995976Y2540000D03*
G01*
X3700223Y2540000D03*
G01*
X3437176Y2540000D03*
G01*
X3141423Y2540000D03*
G01*
X2344976Y2540000D03*
G01*
X2049223Y2540000D03*
G01*
X1811576Y2540000D03*
G01*
X1515823Y2540000D03*
G01*
X1252776Y2540000D03*
G01*
X957023Y2540000D03*
G01*
X2129076Y4826000D03*
G01*
X1833323Y4826000D03*
G01*
X2141776Y3653078D03*
G01*
X1846023Y3653078D03*
G01*
X2129076Y4224578D03*
G01*
X1833323Y4224578D03*
D12*
G01*
X3771900Y3619500D03*
G01*
X4025900Y3619500D03*
G01*
X4279900Y3619500D03*
G01*
X4533900Y3619500D03*
G01*
X4787900Y3619500D03*
G01*
X5041900Y3619500D03*
G01*
X5295900Y3619500D03*
G01*
X5549900Y3619500D03*
G01*
X5803900Y3619500D03*
G01*
X6057900Y3619500D03*
G01*
X6311900Y3619500D03*
G01*
X6565900Y3619500D03*
G01*
X6819900Y3619500D03*
G01*
X7073900Y3619500D03*
G01*
X7327900Y3619500D03*
G01*
X7327900Y5143500D03*
G01*
X7073900Y5143500D03*
G01*
X6819900Y5143500D03*
G01*
X6565900Y5143500D03*
G01*
X6311900Y5143500D03*
G01*
X6057900Y5143500D03*
G01*
X5803900Y5143500D03*
G01*
X5549900Y5143500D03*
G01*
X5295900Y5143500D03*
G01*
X5041900Y5143500D03*
G01*
X4787900Y5143500D03*
G01*
X4533900Y5143500D03*
G01*
X4279900Y5143500D03*
G01*
X4025900Y5143500D03*
G01*
X3771900Y5143500D03*
G01*
X1054100Y3644900D03*
G01*
X812800Y3644900D03*
G01*
X1041400Y4216400D03*
G01*
X800100Y4216400D03*
G01*
X800100Y4817821D03*
G01*
X1041400Y4817821D03*
G01*
X2667000Y1333500D03*
G01*
X2908300Y1333500D03*
G01*
X2667000Y1930400D03*
G01*
X2908300Y1930400D03*
G01*
X2908300Y2540000D03*
G01*
X2667000Y2540000D03*
D13*
G01*
X4470400Y1574800D03*
G01*
X4470400Y2082800D03*
G01*
X7416800Y1066800D03*
G01*
X7404100Y2590800D03*
D12*
G01*
X2565400Y215900D03*
G01*
X2019300Y215900D03*
G01*
X1612900Y215900D03*
G01*
X6845300Y215900D03*
G01*
X7213600Y215900D03*
G01*
X1668018Y3259836D03*
G01*
X1274318Y3259836D03*
G01*
X880618Y3259836D03*
G01*
X512318Y3259836D03*
D14*
G01*
X5041900Y3086100D03*
G01*
X4787900Y2832100D03*
G01*
X393700Y2311400D03*
G01*
X393700Y1714500D03*
G01*
X5295900Y3048000D03*
G01*
X609600Y1104900D03*
G01*
X2781300Y1168400D03*
G01*
X2781300Y1765300D03*
G01*
X2781300Y2374900D03*
M02*
