G04 Layer: TopPasteMaskLayer*
G04 EasyEDA v6.5.50, 2025-05-27 18:24:41*
G04 52539cb3a7ae454bb971d49213b625aa,b37a74ae5ac9402f918d5afa9d52dbed,10*
G04 Gerber Generator version 0.2*
G04 Scale: 100 percent, Rotated: No, Reflected: No *
G04 Dimensions in millimeters *
G04 leading zeros omitted , absolute positions ,4 integer and 5 decimal *
%FSLAX45Y45*%
%MOMM*%

%ADD10C,0.0001*%

%LPD*%
G36*
X1202385Y1418539D02*
G01*
X1192377Y1408531D01*
X1192377Y1372412D01*
X1202385Y1362405D01*
X1223467Y1362405D01*
X1233474Y1352397D01*
X1233474Y1314602D01*
X1223467Y1304594D01*
X1202385Y1304594D01*
X1192377Y1294587D01*
X1192377Y1258468D01*
X1202385Y1248460D01*
X1303172Y1248460D01*
X1313129Y1258468D01*
X1313129Y1408531D01*
X1303172Y1418539D01*
G37*
G36*
X906627Y1418539D02*
G01*
X896670Y1408531D01*
X896670Y1258468D01*
X906627Y1248460D01*
X1007414Y1248460D01*
X1017422Y1258468D01*
X1017422Y1294587D01*
X1007414Y1304594D01*
X986332Y1304594D01*
X976325Y1314602D01*
X976325Y1352397D01*
X986332Y1362405D01*
X1007414Y1362405D01*
X1017422Y1372412D01*
X1017422Y1408531D01*
X1007414Y1418539D01*
G37*
G36*
X1761185Y1418539D02*
G01*
X1751177Y1408531D01*
X1751177Y1372412D01*
X1761185Y1362405D01*
X1782267Y1362405D01*
X1792274Y1352397D01*
X1792274Y1314602D01*
X1782267Y1304594D01*
X1761185Y1304594D01*
X1751177Y1294587D01*
X1751177Y1258468D01*
X1761185Y1248460D01*
X1861972Y1248460D01*
X1871929Y1258468D01*
X1871929Y1408531D01*
X1861972Y1418539D01*
G37*
G36*
X1465427Y1418539D02*
G01*
X1455470Y1408531D01*
X1455470Y1258468D01*
X1465427Y1248460D01*
X1566214Y1248460D01*
X1576222Y1258468D01*
X1576222Y1294587D01*
X1566214Y1304594D01*
X1545132Y1304594D01*
X1535125Y1314602D01*
X1535125Y1352397D01*
X1545132Y1362405D01*
X1566214Y1362405D01*
X1576222Y1372412D01*
X1576222Y1408531D01*
X1566214Y1418539D01*
G37*
G36*
X2294585Y1418539D02*
G01*
X2284577Y1408531D01*
X2284577Y1372412D01*
X2294585Y1362405D01*
X2315667Y1362405D01*
X2325674Y1352397D01*
X2325674Y1314602D01*
X2315667Y1304594D01*
X2294585Y1304594D01*
X2284577Y1294587D01*
X2284577Y1258468D01*
X2294585Y1248460D01*
X2395372Y1248460D01*
X2405329Y1258468D01*
X2405329Y1408531D01*
X2395372Y1418539D01*
G37*
G36*
X1998827Y1418539D02*
G01*
X1988870Y1408531D01*
X1988870Y1258468D01*
X1998827Y1248460D01*
X2099614Y1248460D01*
X2109622Y1258468D01*
X2109622Y1294587D01*
X2099614Y1304594D01*
X2078532Y1304594D01*
X2068525Y1314602D01*
X2068525Y1352397D01*
X2078532Y1362405D01*
X2099614Y1362405D01*
X2109622Y1372412D01*
X2109622Y1408531D01*
X2099614Y1418539D01*
G37*
G36*
X3386785Y1418539D02*
G01*
X3376777Y1408531D01*
X3376777Y1372412D01*
X3386785Y1362405D01*
X3407867Y1362405D01*
X3417874Y1352397D01*
X3417874Y1314602D01*
X3407867Y1304594D01*
X3386785Y1304594D01*
X3376777Y1294587D01*
X3376777Y1258468D01*
X3386785Y1248460D01*
X3487572Y1248460D01*
X3497529Y1258468D01*
X3497529Y1408531D01*
X3487572Y1418539D01*
G37*
G36*
X3091027Y1418539D02*
G01*
X3081070Y1408531D01*
X3081070Y1258468D01*
X3091027Y1248460D01*
X3191814Y1248460D01*
X3201822Y1258468D01*
X3201822Y1294587D01*
X3191814Y1304594D01*
X3170732Y1304594D01*
X3160725Y1314602D01*
X3160725Y1352397D01*
X3170732Y1362405D01*
X3191814Y1362405D01*
X3201822Y1372412D01*
X3201822Y1408531D01*
X3191814Y1418539D01*
G37*
G36*
X3945585Y1418539D02*
G01*
X3935577Y1408531D01*
X3935577Y1372412D01*
X3945585Y1362405D01*
X3966667Y1362405D01*
X3976674Y1352397D01*
X3976674Y1314602D01*
X3966667Y1304594D01*
X3945585Y1304594D01*
X3935577Y1294587D01*
X3935577Y1258468D01*
X3945585Y1248460D01*
X4046372Y1248460D01*
X4056329Y1258468D01*
X4056329Y1408531D01*
X4046372Y1418539D01*
G37*
G36*
X3649827Y1418539D02*
G01*
X3639870Y1408531D01*
X3639870Y1258468D01*
X3649827Y1248460D01*
X3750614Y1248460D01*
X3760622Y1258468D01*
X3760622Y1294587D01*
X3750614Y1304594D01*
X3729532Y1304594D01*
X3719525Y1314602D01*
X3719525Y1352397D01*
X3729532Y1362405D01*
X3750614Y1362405D01*
X3760622Y1372412D01*
X3760622Y1408531D01*
X3750614Y1418539D01*
G37*
G36*
X643585Y1418539D02*
G01*
X633577Y1408531D01*
X633577Y1372412D01*
X643585Y1362405D01*
X664667Y1362405D01*
X674674Y1352397D01*
X674674Y1314602D01*
X664667Y1304594D01*
X643585Y1304594D01*
X633577Y1294587D01*
X633577Y1258468D01*
X643585Y1248460D01*
X744372Y1248460D01*
X754329Y1258468D01*
X754329Y1408531D01*
X744372Y1418539D01*
G37*
G36*
X347827Y1418539D02*
G01*
X337870Y1408531D01*
X337870Y1258468D01*
X347827Y1248460D01*
X448614Y1248460D01*
X458622Y1258468D01*
X458622Y1294587D01*
X448614Y1304594D01*
X427532Y1304594D01*
X417525Y1314602D01*
X417525Y1352397D01*
X427532Y1362405D01*
X448614Y1362405D01*
X458622Y1372412D01*
X458622Y1408531D01*
X448614Y1418539D01*
G37*
G36*
X1202385Y2015439D02*
G01*
X1192377Y2005431D01*
X1192377Y1969312D01*
X1202385Y1959305D01*
X1223467Y1959305D01*
X1233474Y1949297D01*
X1233474Y1911502D01*
X1223467Y1901494D01*
X1202385Y1901494D01*
X1192377Y1891487D01*
X1192377Y1855368D01*
X1202385Y1845360D01*
X1303172Y1845360D01*
X1313129Y1855368D01*
X1313129Y2005431D01*
X1303172Y2015439D01*
G37*
G36*
X906627Y2015439D02*
G01*
X896670Y2005431D01*
X896670Y1855368D01*
X906627Y1845360D01*
X1007414Y1845360D01*
X1017422Y1855368D01*
X1017422Y1891487D01*
X1007414Y1901494D01*
X986332Y1901494D01*
X976325Y1911502D01*
X976325Y1949297D01*
X986332Y1959305D01*
X1007414Y1959305D01*
X1017422Y1969312D01*
X1017422Y2005431D01*
X1007414Y2015439D01*
G37*
G36*
X1761185Y2015439D02*
G01*
X1751177Y2005431D01*
X1751177Y1969312D01*
X1761185Y1959305D01*
X1782267Y1959305D01*
X1792274Y1949297D01*
X1792274Y1911502D01*
X1782267Y1901494D01*
X1761185Y1901494D01*
X1751177Y1891487D01*
X1751177Y1855368D01*
X1761185Y1845360D01*
X1861972Y1845360D01*
X1871929Y1855368D01*
X1871929Y2005431D01*
X1861972Y2015439D01*
G37*
G36*
X1465427Y2015439D02*
G01*
X1455470Y2005431D01*
X1455470Y1855368D01*
X1465427Y1845360D01*
X1566214Y1845360D01*
X1576222Y1855368D01*
X1576222Y1891487D01*
X1566214Y1901494D01*
X1545132Y1901494D01*
X1535125Y1911502D01*
X1535125Y1949297D01*
X1545132Y1959305D01*
X1566214Y1959305D01*
X1576222Y1969312D01*
X1576222Y2005431D01*
X1566214Y2015439D01*
G37*
G36*
X2294585Y2015439D02*
G01*
X2284577Y2005431D01*
X2284577Y1969312D01*
X2294585Y1959305D01*
X2315667Y1959305D01*
X2325674Y1949297D01*
X2325674Y1911502D01*
X2315667Y1901494D01*
X2294585Y1901494D01*
X2284577Y1891487D01*
X2284577Y1855368D01*
X2294585Y1845360D01*
X2395372Y1845360D01*
X2405329Y1855368D01*
X2405329Y2005431D01*
X2395372Y2015439D01*
G37*
G36*
X1998827Y2015439D02*
G01*
X1988870Y2005431D01*
X1988870Y1855368D01*
X1998827Y1845360D01*
X2099614Y1845360D01*
X2109622Y1855368D01*
X2109622Y1891487D01*
X2099614Y1901494D01*
X2078532Y1901494D01*
X2068525Y1911502D01*
X2068525Y1949297D01*
X2078532Y1959305D01*
X2099614Y1959305D01*
X2109622Y1969312D01*
X2109622Y2005431D01*
X2099614Y2015439D01*
G37*
G36*
X3386785Y2015439D02*
G01*
X3376777Y2005431D01*
X3376777Y1969312D01*
X3386785Y1959305D01*
X3407867Y1959305D01*
X3417874Y1949297D01*
X3417874Y1911502D01*
X3407867Y1901494D01*
X3386785Y1901494D01*
X3376777Y1891487D01*
X3376777Y1855368D01*
X3386785Y1845360D01*
X3487572Y1845360D01*
X3497529Y1855368D01*
X3497529Y2005431D01*
X3487572Y2015439D01*
G37*
G36*
X3091027Y2015439D02*
G01*
X3081070Y2005431D01*
X3081070Y1855368D01*
X3091027Y1845360D01*
X3191814Y1845360D01*
X3201822Y1855368D01*
X3201822Y1891487D01*
X3191814Y1901494D01*
X3170732Y1901494D01*
X3160725Y1911502D01*
X3160725Y1949297D01*
X3170732Y1959305D01*
X3191814Y1959305D01*
X3201822Y1969312D01*
X3201822Y2005431D01*
X3191814Y2015439D01*
G37*
G36*
X3945585Y2015439D02*
G01*
X3935577Y2005431D01*
X3935577Y1969312D01*
X3945585Y1959305D01*
X3966667Y1959305D01*
X3976674Y1949297D01*
X3976674Y1911502D01*
X3966667Y1901494D01*
X3945585Y1901494D01*
X3935577Y1891487D01*
X3935577Y1855368D01*
X3945585Y1845360D01*
X4046372Y1845360D01*
X4056329Y1855368D01*
X4056329Y2005431D01*
X4046372Y2015439D01*
G37*
G36*
X3649827Y2015439D02*
G01*
X3639870Y2005431D01*
X3639870Y1855368D01*
X3649827Y1845360D01*
X3750614Y1845360D01*
X3760622Y1855368D01*
X3760622Y1891487D01*
X3750614Y1901494D01*
X3729532Y1901494D01*
X3719525Y1911502D01*
X3719525Y1949297D01*
X3729532Y1959305D01*
X3750614Y1959305D01*
X3760622Y1969312D01*
X3760622Y2005431D01*
X3750614Y2015439D01*
G37*
G36*
X643585Y2015439D02*
G01*
X633577Y2005431D01*
X633577Y1969312D01*
X643585Y1959305D01*
X664667Y1959305D01*
X674674Y1949297D01*
X674674Y1911502D01*
X664667Y1901494D01*
X643585Y1901494D01*
X633577Y1891487D01*
X633577Y1855368D01*
X643585Y1845360D01*
X744372Y1845360D01*
X754329Y1855368D01*
X754329Y2005431D01*
X744372Y2015439D01*
G37*
G36*
X347827Y2015439D02*
G01*
X337870Y2005431D01*
X337870Y1855368D01*
X347827Y1845360D01*
X448614Y1845360D01*
X458622Y1855368D01*
X458622Y1891487D01*
X448614Y1901494D01*
X427532Y1901494D01*
X417525Y1911502D01*
X417525Y1949297D01*
X427532Y1959305D01*
X448614Y1959305D01*
X458622Y1969312D01*
X458622Y2005431D01*
X448614Y2015439D01*
G37*
G36*
X643585Y2625039D02*
G01*
X633577Y2615031D01*
X633577Y2578912D01*
X643585Y2568905D01*
X664667Y2568905D01*
X674674Y2558897D01*
X674674Y2521102D01*
X664667Y2511094D01*
X643585Y2511094D01*
X633577Y2501087D01*
X633577Y2464968D01*
X643585Y2454960D01*
X744372Y2454960D01*
X754329Y2464968D01*
X754329Y2615031D01*
X744372Y2625039D01*
G37*
G36*
X347827Y2625039D02*
G01*
X337870Y2615031D01*
X337870Y2464968D01*
X347827Y2454960D01*
X448614Y2454960D01*
X458622Y2464968D01*
X458622Y2501087D01*
X448614Y2511094D01*
X427532Y2511094D01*
X417525Y2521102D01*
X417525Y2558897D01*
X427532Y2568905D01*
X448614Y2568905D01*
X458622Y2578912D01*
X458622Y2615031D01*
X448614Y2625039D01*
G37*
G36*
X3945585Y2625039D02*
G01*
X3935577Y2615031D01*
X3935577Y2578912D01*
X3945585Y2568905D01*
X3966667Y2568905D01*
X3976674Y2558897D01*
X3976674Y2521102D01*
X3966667Y2511094D01*
X3945585Y2511094D01*
X3935577Y2501087D01*
X3935577Y2464968D01*
X3945585Y2454960D01*
X4046372Y2454960D01*
X4056329Y2464968D01*
X4056329Y2615031D01*
X4046372Y2625039D01*
G37*
G36*
X3649827Y2625039D02*
G01*
X3639870Y2615031D01*
X3639870Y2464968D01*
X3649827Y2454960D01*
X3750614Y2454960D01*
X3760622Y2464968D01*
X3760622Y2501087D01*
X3750614Y2511094D01*
X3729532Y2511094D01*
X3719525Y2521102D01*
X3719525Y2558897D01*
X3729532Y2568905D01*
X3750614Y2568905D01*
X3760622Y2578912D01*
X3760622Y2615031D01*
X3750614Y2625039D01*
G37*
G36*
X3386785Y2625039D02*
G01*
X3376777Y2615031D01*
X3376777Y2578912D01*
X3386785Y2568905D01*
X3407867Y2568905D01*
X3417874Y2558897D01*
X3417874Y2521102D01*
X3407867Y2511094D01*
X3386785Y2511094D01*
X3376777Y2501087D01*
X3376777Y2464968D01*
X3386785Y2454960D01*
X3487572Y2454960D01*
X3497529Y2464968D01*
X3497529Y2615031D01*
X3487572Y2625039D01*
G37*
G36*
X3091027Y2625039D02*
G01*
X3081070Y2615031D01*
X3081070Y2464968D01*
X3091027Y2454960D01*
X3191814Y2454960D01*
X3201822Y2464968D01*
X3201822Y2501087D01*
X3191814Y2511094D01*
X3170732Y2511094D01*
X3160725Y2521102D01*
X3160725Y2558897D01*
X3170732Y2568905D01*
X3191814Y2568905D01*
X3201822Y2578912D01*
X3201822Y2615031D01*
X3191814Y2625039D01*
G37*
G36*
X2294585Y2625039D02*
G01*
X2284577Y2615031D01*
X2284577Y2578912D01*
X2294585Y2568905D01*
X2315667Y2568905D01*
X2325674Y2558897D01*
X2325674Y2521102D01*
X2315667Y2511094D01*
X2294585Y2511094D01*
X2284577Y2501087D01*
X2284577Y2464968D01*
X2294585Y2454960D01*
X2395372Y2454960D01*
X2405329Y2464968D01*
X2405329Y2615031D01*
X2395372Y2625039D01*
G37*
G36*
X1998827Y2625039D02*
G01*
X1988870Y2615031D01*
X1988870Y2464968D01*
X1998827Y2454960D01*
X2099614Y2454960D01*
X2109622Y2464968D01*
X2109622Y2501087D01*
X2099614Y2511094D01*
X2078532Y2511094D01*
X2068525Y2521102D01*
X2068525Y2558897D01*
X2078532Y2568905D01*
X2099614Y2568905D01*
X2109622Y2578912D01*
X2109622Y2615031D01*
X2099614Y2625039D01*
G37*
G36*
X1761185Y2625039D02*
G01*
X1751177Y2615031D01*
X1751177Y2578912D01*
X1761185Y2568905D01*
X1782267Y2568905D01*
X1792274Y2558897D01*
X1792274Y2521102D01*
X1782267Y2511094D01*
X1761185Y2511094D01*
X1751177Y2501087D01*
X1751177Y2464968D01*
X1761185Y2454960D01*
X1861972Y2454960D01*
X1871929Y2464968D01*
X1871929Y2615031D01*
X1861972Y2625039D01*
G37*
G36*
X1465427Y2625039D02*
G01*
X1455470Y2615031D01*
X1455470Y2464968D01*
X1465427Y2454960D01*
X1566214Y2454960D01*
X1576222Y2464968D01*
X1576222Y2501087D01*
X1566214Y2511094D01*
X1545132Y2511094D01*
X1535125Y2521102D01*
X1535125Y2558897D01*
X1545132Y2568905D01*
X1566214Y2568905D01*
X1576222Y2578912D01*
X1576222Y2615031D01*
X1566214Y2625039D01*
G37*
G36*
X1202385Y2625039D02*
G01*
X1192377Y2615031D01*
X1192377Y2578912D01*
X1202385Y2568905D01*
X1223467Y2568905D01*
X1233474Y2558897D01*
X1233474Y2521102D01*
X1223467Y2511094D01*
X1202385Y2511094D01*
X1192377Y2501087D01*
X1192377Y2464968D01*
X1202385Y2454960D01*
X1303172Y2454960D01*
X1313129Y2464968D01*
X1313129Y2615031D01*
X1303172Y2625039D01*
G37*
G36*
X906627Y2625039D02*
G01*
X896670Y2615031D01*
X896670Y2464968D01*
X906627Y2454960D01*
X1007414Y2454960D01*
X1017422Y2464968D01*
X1017422Y2501087D01*
X1007414Y2511094D01*
X986332Y2511094D01*
X976325Y2521102D01*
X976325Y2558897D01*
X986332Y2568905D01*
X1007414Y2568905D01*
X1017422Y2578912D01*
X1017422Y2615031D01*
X1007414Y2625039D01*
G37*
G36*
X2078685Y4911039D02*
G01*
X2068677Y4901031D01*
X2068677Y4864912D01*
X2078685Y4854905D01*
X2099767Y4854905D01*
X2109774Y4844897D01*
X2109774Y4807102D01*
X2099767Y4797094D01*
X2078685Y4797094D01*
X2068677Y4787087D01*
X2068677Y4750968D01*
X2078685Y4740960D01*
X2179472Y4740960D01*
X2189429Y4750968D01*
X2189429Y4901031D01*
X2179472Y4911039D01*
G37*
G36*
X1782927Y4911039D02*
G01*
X1772970Y4901031D01*
X1772970Y4750968D01*
X1782927Y4740960D01*
X1883714Y4740960D01*
X1893722Y4750968D01*
X1893722Y4787087D01*
X1883714Y4797094D01*
X1862632Y4797094D01*
X1852625Y4807102D01*
X1852625Y4844897D01*
X1862632Y4854905D01*
X1883714Y4854905D01*
X1893722Y4864912D01*
X1893722Y4901031D01*
X1883714Y4911039D01*
G37*
G36*
X2091385Y3738118D02*
G01*
X2081377Y3728110D01*
X2081377Y3691991D01*
X2091385Y3681984D01*
X2112467Y3681984D01*
X2122474Y3671976D01*
X2122474Y3634181D01*
X2112467Y3624173D01*
X2091385Y3624173D01*
X2081377Y3614165D01*
X2081377Y3578047D01*
X2091385Y3568039D01*
X2192172Y3568039D01*
X2202129Y3578047D01*
X2202129Y3728110D01*
X2192172Y3738118D01*
G37*
G36*
X1795627Y3738118D02*
G01*
X1785670Y3728110D01*
X1785670Y3578047D01*
X1795627Y3568039D01*
X1896414Y3568039D01*
X1906422Y3578047D01*
X1906422Y3614165D01*
X1896414Y3624173D01*
X1875332Y3624173D01*
X1865325Y3634181D01*
X1865325Y3671976D01*
X1875332Y3681984D01*
X1896414Y3681984D01*
X1906422Y3691991D01*
X1906422Y3728110D01*
X1896414Y3738118D01*
G37*
G36*
X2078685Y4309618D02*
G01*
X2068677Y4299610D01*
X2068677Y4263491D01*
X2078685Y4253484D01*
X2099767Y4253484D01*
X2109774Y4243476D01*
X2109774Y4205681D01*
X2099767Y4195673D01*
X2078685Y4195673D01*
X2068677Y4185665D01*
X2068677Y4149547D01*
X2078685Y4139539D01*
X2179472Y4139539D01*
X2189429Y4149547D01*
X2189429Y4299610D01*
X2179472Y4309618D01*
G37*
G36*
X1782927Y4309618D02*
G01*
X1772970Y4299610D01*
X1772970Y4149547D01*
X1782927Y4139539D01*
X1883714Y4139539D01*
X1893722Y4149547D01*
X1893722Y4185665D01*
X1883714Y4195673D01*
X1862632Y4195673D01*
X1852625Y4205681D01*
X1852625Y4243476D01*
X1862632Y4253484D01*
X1883714Y4253484D01*
X1893722Y4263491D01*
X1893722Y4299610D01*
X1883714Y4309618D01*
G37*
M02*
