G04 Layer: BottomLayer*
G04 EasyEDA v6.5.50, 2025-05-27 18:24:41*
G04 52539cb3a7ae454bb971d49213b625aa,b37a74ae5ac9402f918d5afa9d52dbed,10*
G04 Gerber Generator version 0.2*
G04 Scale: 100 percent, Rotated: No, Reflected: No *
G04 Dimensions in millimeters *
G04 leading zeros omitted , absolute positions ,4 integer and 5 decimal *
%FSLAX45Y45*%
%MOMM*%

%ADD10C,0.4000*%
%ADD11C,0.2540*%
%ADD12C,1.5240*%
%ADD13C,2.7000*%
%ADD14C,0.6200*%
%ADD15C,0.0185*%

%LPD*%
D10*
X6565900Y5308600D02*
G01*
X6400800Y5473700D01*
X381000Y5473700D01*
X127000Y5219700D01*
X127000Y3276600D01*
X317500Y3086100D01*
X856995Y3086100D01*
X1100581Y3086100D01*
X1274318Y3259836D01*
D11*
X2908300Y1930400D02*
G01*
X3302000Y1930400D01*
X4025900Y2654300D01*
X4610100Y2654300D01*
X4775200Y2819400D01*
X4787900Y2832100D01*
D10*
X1668015Y3259838D02*
G01*
X1778000Y3340100D01*
X6794500Y3327400D01*
X6794500Y3048000D01*
X6565900Y5143500D02*
G01*
X6565900Y5308600D01*
X7404100Y2590800D02*
G01*
X7404100Y2604678D01*
X7073900Y2934878D01*
X7416800Y1066800D02*
G01*
X7416800Y2133600D01*
X6794500Y2755900D01*
X6794500Y3390900D01*
X6565900Y3619500D01*
X7073900Y3619500D02*
G01*
X7073900Y3771900D01*
X7251700Y3949700D01*
X7594600Y3949700D01*
X7670800Y4025900D01*
X7670800Y5232400D01*
X7543800Y5359400D01*
X6616700Y5359400D01*
X6565900Y5308600D01*
X7073900Y3619500D02*
G01*
X7073900Y2933700D01*
D11*
X800100Y4817821D02*
G01*
X127000Y4817821D01*
X800100Y4216400D02*
G01*
X127000Y4216400D01*
X812800Y3644900D02*
G01*
X127000Y3644900D01*
X2781300Y1168400D02*
G01*
X2781300Y1765300D01*
X2781300Y1765300D02*
G01*
X2781300Y2374900D01*
X2781300Y2374900D02*
G01*
X2781300Y2984500D01*
X2984500Y3187700D01*
X3022600Y3187700D01*
X3022600Y3187700D02*
G01*
X6134100Y3187700D01*
X6794500Y2527300D01*
X6794500Y1028700D01*
X6985000Y838200D01*
X7543800Y838200D01*
X7734300Y1028700D01*
X7734300Y2260600D01*
X7404100Y2590800D01*
X5295900Y3048000D02*
G01*
X5295900Y1638300D01*
X4699000Y1041400D01*
X4064000Y1041400D01*
X3784600Y1320800D01*
X2908300Y1320800D01*
X2895600Y1333500D01*
X2565400Y215900D02*
G01*
X2273300Y508000D01*
X381000Y508000D01*
X63500Y825500D01*
X63500Y1981200D01*
X393700Y2311400D01*
X5041900Y3086100D02*
G01*
X3454400Y3086100D01*
X2908300Y2540000D01*
X6845300Y215900D02*
G01*
X6845300Y241300D01*
X6705600Y381000D01*
X7213600Y215900D02*
G01*
X7213600Y368300D01*
X7035800Y546100D01*
X7035800Y546100D02*
G01*
X3937000Y546100D01*
X3581400Y901700D01*
X812800Y901700D01*
X609600Y1104900D01*
X6705600Y381000D02*
G01*
X3683000Y381000D01*
X3365500Y698500D01*
X520700Y698500D01*
X241300Y977900D01*
X241300Y1562100D01*
X393700Y1714500D01*
D12*
G01*
X3771900Y3619500D03*
G01*
X4025900Y3619500D03*
G01*
X4279900Y3619500D03*
G01*
X4533900Y3619500D03*
G01*
X4787900Y3619500D03*
G01*
X5041900Y3619500D03*
G01*
X5295900Y3619500D03*
G01*
X5549900Y3619500D03*
G01*
X5803900Y3619500D03*
G01*
X6057900Y3619500D03*
G01*
X6311900Y3619500D03*
G01*
X6565900Y3619500D03*
G01*
X6819900Y3619500D03*
G01*
X7073900Y3619500D03*
G01*
X7327900Y3619500D03*
G01*
X7327900Y5143500D03*
G01*
X7073900Y5143500D03*
G01*
X6819900Y5143500D03*
G01*
X6565900Y5143500D03*
G01*
X6311900Y5143500D03*
G01*
X6057900Y5143500D03*
G01*
X5803900Y5143500D03*
G01*
X5549900Y5143500D03*
G01*
X5295900Y5143500D03*
G01*
X5041900Y5143500D03*
G01*
X4787900Y5143500D03*
G01*
X4533900Y5143500D03*
G01*
X4279900Y5143500D03*
G01*
X4025900Y5143500D03*
G01*
X3771900Y5143500D03*
G01*
X1054100Y3644900D03*
G01*
X812800Y3644900D03*
G01*
X1041400Y4216400D03*
G01*
X800100Y4216400D03*
G01*
X800100Y4817821D03*
G01*
X1041400Y4817821D03*
G01*
X2667000Y1333500D03*
G01*
X2908300Y1333500D03*
G01*
X2667000Y1930400D03*
G01*
X2908300Y1930400D03*
G01*
X2908300Y2540000D03*
G01*
X2667000Y2540000D03*
D13*
G01*
X4470400Y1574800D03*
G01*
X4470400Y2082800D03*
G01*
X7416800Y1066800D03*
G01*
X7404100Y2590800D03*
D12*
G01*
X2565400Y215900D03*
G01*
X2019300Y215900D03*
G01*
X1612900Y215900D03*
G01*
X6845300Y215900D03*
G01*
X7213600Y215900D03*
G01*
X1668018Y3259836D03*
G01*
X1274318Y3259836D03*
G01*
X880618Y3259836D03*
G01*
X512318Y3259836D03*
D14*
G01*
X5041900Y3086100D03*
G01*
X4787900Y2832100D03*
G01*
X393700Y2311400D03*
G01*
X393700Y1714500D03*
G01*
X5295900Y3048000D03*
G01*
X609600Y1104900D03*
G01*
X2781300Y1168400D03*
G01*
X2781300Y1765300D03*
G01*
X2781300Y2374900D03*
M02*
